<svg width="122" height="58" viewBox="0 0 122 58" fill="none" xmlns="http://www.w3.org/2000/svg">
<path d="M48.4883 31.2432C48.5293 31.2432 48.5762 31.293 48.6289 31.3926C48.6816 31.4922 48.7314 31.6094 48.7783 31.7441C48.8311 31.873 48.8779 32.0049 48.9189 32.1396C48.9658 32.2686 49.001 32.3652 49.0244 32.4297C49.1533 32.8105 49.2969 33.2412 49.4551 33.7217C49.6133 34.2021 49.7803 34.7148 49.9561 35.2598C50.1377 35.8047 50.3252 36.373 50.5186 36.9648C50.7178 37.5508 50.9141 38.1396 51.1074 38.7314C51.3066 39.3174 51.5029 39.8975 51.6963 40.4717C51.8896 41.0459 52.0742 41.5938 52.25 42.1152C52.4258 42.6309 52.5898 43.1084 52.7422 43.5479C52.9004 43.9814 53.041 44.3594 53.1641 44.6816C53.3047 45.0625 53.4424 45.3672 53.5771 45.5957C53.7119 45.8242 53.8555 46.0059 54.0078 46.1406C54.1602 46.2754 54.3271 46.375 54.5088 46.4395C54.6963 46.5039 54.9102 46.5625 55.1504 46.6152C55.3262 46.6504 55.4141 46.7148 55.4141 46.8086C55.4141 46.873 55.3818 46.917 55.3174 46.9404C55.2529 46.9639 55.1797 46.9756 55.0977 46.9756C54.9688 46.9756 54.8047 46.9727 54.6055 46.9668C54.4062 46.9609 54.1777 46.958 53.9199 46.958C53.7148 46.958 53.4922 46.9609 53.252 46.9668C53.0176 46.9785 52.7744 46.9932 52.5225 47.0107C52.1299 47.04 51.7666 47.0869 51.4326 47.1514C51.0986 47.2217 50.7969 47.2891 50.5273 47.3535C50.2578 47.4238 50.0205 47.4854 49.8154 47.5381C49.6162 47.5908 49.4551 47.6172 49.332 47.6172C49.2676 47.6172 49.2148 47.5996 49.1738 47.5645C49.1387 47.5352 49.1211 47.4941 49.1211 47.4414C49.1211 47.3652 49.1416 47.3037 49.1826 47.2568C49.2236 47.21 49.3027 47.1689 49.4199 47.1338C49.4668 47.1221 49.5342 47.1045 49.6221 47.0811C49.71 47.0576 49.8066 47.0312 49.9121 47.002C50.0176 46.9727 50.126 46.9375 50.2373 46.8965C50.3545 46.8613 50.46 46.8203 50.5537 46.7734C50.6709 46.709 50.7764 46.624 50.8701 46.5186C50.9639 46.4131 51.0107 46.252 51.0107 46.0352C51.0107 45.9883 51.0049 45.9238 50.9932 45.8418C50.9873 45.7598 50.9756 45.6865 50.958 45.6221C50.8525 45.2119 50.7441 44.7959 50.6328 44.374C50.5215 43.9521 50.4102 43.5508 50.2988 43.1699C50.1875 42.7891 50.082 42.4375 49.9824 42.1152C49.8828 41.793 49.792 41.5293 49.71 41.3242C49.5752 40.9844 49.4199 40.7266 49.2441 40.5508C49.0684 40.3691 48.875 40.2285 48.6641 40.1289C48.6055 40.1055 48.5088 40.0674 48.374 40.0146C48.2393 39.9619 48.0781 39.9062 47.8906 39.8477C47.709 39.7832 47.5127 39.7158 47.3018 39.6455C47.0908 39.5752 46.8828 39.5078 46.6777 39.4434C46.4727 39.373 46.2793 39.3115 46.0977 39.2588C45.9219 39.2002 45.7754 39.1504 45.6582 39.1094C45.5176 39.5605 45.377 40.0088 45.2363 40.4541C45.1016 40.8936 44.9756 41.3008 44.8584 41.6758C44.7471 42.0449 44.6475 42.3701 44.5596 42.6514C44.4775 42.9326 44.4189 43.1377 44.3838 43.2666C44.3369 43.4189 44.3047 43.5566 44.2871 43.6797C44.2695 43.8027 44.2607 43.9111 44.2607 44.0049C44.2607 44.1748 44.2842 44.3184 44.3311 44.4355C44.3838 44.5469 44.4512 44.6436 44.5332 44.7256C44.6152 44.8018 44.709 44.8691 44.8145 44.9277C44.9258 44.9805 45.04 45.0332 45.1572 45.0859C45.2568 45.1328 45.3447 45.1855 45.4209 45.2441C45.4971 45.2969 45.5352 45.3643 45.5352 45.4463C45.5352 45.499 45.5117 45.5459 45.4648 45.5869C45.4238 45.6221 45.3564 45.6396 45.2627 45.6396C45.1631 45.6396 45.0371 45.6162 44.8848 45.5693C44.7324 45.5225 44.5625 45.4639 44.375 45.3936C44.1934 45.3232 44 45.25 43.7949 45.1738C43.5898 45.0918 43.3848 45.0186 43.1797 44.9541C43.0156 44.9072 42.8457 44.8662 42.6699 44.8311C42.4941 44.79 42.3242 44.7578 42.1602 44.7344C41.9961 44.7109 41.8467 44.6934 41.7119 44.6816C41.583 44.6641 41.4834 44.6523 41.4131 44.6465C41.2666 44.6348 41.1611 44.6143 41.0967 44.585C41.0322 44.5557 41 44.5 41 44.418C41 44.3594 41.0176 44.3125 41.0527 44.2773C41.0938 44.2363 41.1611 44.2158 41.2549 44.2158C41.29 44.2158 41.3516 44.2188 41.4395 44.2246C41.5332 44.2305 41.6387 44.2334 41.7559 44.2334C42.0371 44.2334 42.2715 44.2158 42.459 44.1807C42.6465 44.1455 42.8047 44.0898 42.9336 44.0137C43.0625 43.9375 43.168 43.8438 43.25 43.7324C43.3379 43.6152 43.417 43.4775 43.4873 43.3193C43.5576 43.167 43.6426 42.9648 43.7422 42.7129C43.8418 42.4551 43.9473 42.1768 44.0586 41.8779C44.1758 41.5732 44.293 41.2598 44.4102 40.9375C44.5273 40.6094 44.6357 40.3018 44.7354 40.0146C44.8408 39.7217 44.9316 39.4639 45.0078 39.2412C45.084 39.0127 45.1396 38.8428 45.1748 38.7314C45.2217 38.5791 45.2861 38.3711 45.3682 38.1074C45.4561 37.8379 45.5527 37.5391 45.6582 37.2109C45.7637 36.8828 45.8691 36.543 45.9746 36.1914C46.0859 35.834 46.1855 35.4941 46.2734 35.1719C46.3672 34.8438 46.4404 34.5479 46.4932 34.2842C46.5518 34.0146 46.5811 33.8037 46.5811 33.6514C46.5811 33.5342 46.5488 33.4375 46.4844 33.3613C46.4199 33.2793 46.3145 33.2383 46.168 33.2383C46.0391 33.2383 45.8926 33.2471 45.7285 33.2646C45.5703 33.2822 45.4092 33.2998 45.2451 33.3174C45.0811 33.335 44.9199 33.3525 44.7617 33.3701C44.6094 33.3877 44.4775 33.3965 44.3662 33.3965C44.1494 33.3965 44.041 33.3203 44.041 33.168C44.041 33.0273 44.1436 32.9482 44.3486 32.9307C44.4893 32.9248 44.6475 32.9102 44.8232 32.8867C45.0049 32.8633 45.1953 32.8311 45.3945 32.79C45.5938 32.749 45.793 32.6992 45.9922 32.6406C46.1973 32.5762 46.3936 32.5 46.5811 32.4121C46.8799 32.2773 47.1348 32.1396 47.3457 31.999C47.5566 31.8584 47.7354 31.7324 47.8818 31.6211C48.0342 31.5098 48.1572 31.4189 48.251 31.3486C48.3506 31.2783 48.4297 31.2432 48.4883 31.2432ZM45.8076 38.6348C45.9893 38.6992 46.2207 38.7812 46.502 38.8809C46.7891 38.9746 47.0791 39.0684 47.3721 39.1621C47.665 39.25 47.9346 39.3262 48.1807 39.3906C48.4326 39.4551 48.6143 39.4873 48.7256 39.4873C48.7959 39.4873 48.8574 39.4639 48.9102 39.417C48.9629 39.3643 48.9893 39.2852 48.9893 39.1797C48.9893 39.0918 48.9629 38.9336 48.9102 38.7051C48.8574 38.4707 48.79 38.207 48.708 37.9141C48.6318 37.6152 48.5469 37.3047 48.4531 36.9824C48.3594 36.6543 48.2715 36.3525 48.1895 36.0771C48.1074 35.8018 48.0371 35.5732 47.9785 35.3916C47.9258 35.2041 47.8965 35.0986 47.8906 35.0752C47.8672 35.0049 47.835 34.9053 47.7939 34.7764C47.7588 34.6416 47.7178 34.5098 47.6709 34.3809C47.6299 34.252 47.5859 34.1406 47.5391 34.0469C47.498 33.9531 47.4658 33.9062 47.4424 33.9062C47.4189 33.9062 47.3867 33.9385 47.3457 34.0029C47.3105 34.0674 47.2725 34.1465 47.2314 34.2402C47.1904 34.3281 47.1494 34.4248 47.1084 34.5303C47.0674 34.6357 47.0352 34.7324 47.0117 34.8203L45.8076 38.6348ZM58.0947 34.7852C58.0947 34.8555 58.0918 34.9551 58.0859 35.084C58.0801 35.207 58.0771 35.3359 58.0771 35.4707C58.0771 35.6406 58.0859 35.8223 58.1035 36.0156C58.127 36.2031 58.1533 36.3789 58.1826 36.543C58.2178 36.7012 58.25 36.8359 58.2793 36.9473C58.3145 37.0527 58.3438 37.1055 58.3672 37.1055C58.3906 37.1055 58.4229 37.0205 58.4639 36.8506C58.5107 36.6807 58.5752 36.4668 58.6572 36.209C58.7451 35.9512 58.8564 35.6758 58.9912 35.3828C59.126 35.084 59.2988 34.8057 59.5098 34.5479C59.7207 34.29 59.9727 34.0762 60.2656 33.9062C60.5645 33.7363 60.916 33.6514 61.3203 33.6514C61.6953 33.6514 62.0088 33.7158 62.2607 33.8447C62.5186 33.9736 62.7236 34.1348 62.876 34.3281C63.0283 34.5215 63.1367 34.7324 63.2012 34.9609C63.2656 35.1836 63.2979 35.3945 63.2979 35.5938C63.2979 35.9043 63.2568 36.1768 63.1748 36.4111C63.0928 36.6396 62.9814 36.8301 62.8408 36.9824C62.7061 37.1348 62.5508 37.252 62.375 37.334C62.1992 37.4102 62.0205 37.4482 61.8389 37.4482C61.5049 37.4482 61.2324 37.3691 61.0215 37.2109C60.8105 37.0527 60.7051 36.8213 60.7051 36.5166C60.7051 36.3525 60.7256 36.2119 60.7666 36.0947C60.8135 35.9775 60.8721 35.8779 60.9424 35.7959C61.0186 35.7139 61.1064 35.6465 61.2061 35.5938C61.3115 35.5352 61.4258 35.4883 61.5488 35.4531C61.8008 35.377 61.9707 35.2832 62.0586 35.1719C62.1523 35.0605 62.1992 34.9316 62.1992 34.7852C62.1992 34.6973 62.1816 34.6123 62.1465 34.5303C62.1172 34.4482 62.0645 34.375 61.9883 34.3105C61.918 34.2402 61.8242 34.1846 61.707 34.1436C61.5957 34.1025 61.458 34.082 61.2939 34.082C60.96 34.082 60.667 34.1611 60.415 34.3193C60.1631 34.4717 59.9434 34.6797 59.7559 34.9434C59.5684 35.2012 59.4131 35.5 59.29 35.8398C59.167 36.1797 59.0674 36.5371 58.9912 36.9121C58.915 37.2812 58.8594 37.6562 58.8242 38.0371C58.7949 38.4121 58.7803 38.7637 58.7803 39.0918C58.7803 39.3906 58.792 39.7158 58.8154 40.0674C58.8389 40.4131 58.8682 40.7617 58.9033 41.1133C58.9443 41.4648 58.9883 41.8076 59.0352 42.1416C59.082 42.4756 59.126 42.7803 59.167 43.0557C59.2139 43.3311 59.2549 43.5684 59.29 43.7676C59.3252 43.9668 59.3516 44.1045 59.3691 44.1807C59.4336 44.4443 59.5332 44.6289 59.668 44.7344C59.8086 44.834 59.9932 44.8838 60.2217 44.8838C60.3213 44.8838 60.4238 44.8809 60.5293 44.875C60.6406 44.8691 60.7227 44.8662 60.7754 44.8662C60.9336 44.8662 61.0127 44.9248 61.0127 45.042C61.0127 45.1357 60.9688 45.1973 60.8809 45.2266C60.8105 45.2559 60.6846 45.2734 60.5029 45.2793C60.3271 45.2852 60.1191 45.291 59.8789 45.2969C59.6445 45.3027 59.3896 45.3115 59.1143 45.3232C58.8389 45.335 58.5723 45.3555 58.3145 45.3848C58.0273 45.4199 57.749 45.4697 57.4795 45.5342C57.21 45.5928 56.9609 45.6514 56.7324 45.71C56.5039 45.7627 56.3018 45.8096 56.126 45.8506C55.9502 45.8916 55.8096 45.9121 55.7041 45.9121C55.5928 45.9121 55.5166 45.8887 55.4756 45.8418C55.4346 45.7949 55.4141 45.7451 55.4141 45.6924C55.4141 45.6045 55.4492 45.543 55.5195 45.5078C55.5957 45.4668 55.6982 45.4258 55.8271 45.3848C55.9268 45.3555 56.0439 45.3262 56.1787 45.2969C56.3193 45.2617 56.4834 45.2031 56.6709 45.1211C56.8584 45.0391 56.9873 44.9307 57.0576 44.7959C57.1338 44.6553 57.1719 44.4443 57.1719 44.1631C57.1719 44.0752 57.166 43.9287 57.1543 43.7236C57.1426 43.5127 57.125 43.2637 57.1016 42.9766C57.084 42.6895 57.0605 42.376 57.0312 42.0361C57.0078 41.6904 56.9814 41.3389 56.9521 40.9814C56.9229 40.6182 56.8906 40.2578 56.8555 39.9004C56.8262 39.543 56.7969 39.209 56.7676 38.8984C56.7383 38.582 56.709 38.3008 56.6797 38.0547C56.6562 37.8086 56.6357 37.6123 56.6182 37.4658C56.5947 37.29 56.5596 37.1523 56.5127 37.0527C56.4658 36.9473 56.4102 36.8682 56.3457 36.8154C56.2812 36.7627 56.2051 36.7305 56.1172 36.7188C56.0352 36.7012 55.9443 36.6924 55.8447 36.6924H55.4844C55.4551 36.6924 55.417 36.6924 55.3701 36.6924C55.3291 36.6865 55.2881 36.6777 55.2471 36.666C55.2061 36.6484 55.1709 36.625 55.1416 36.5957C55.1182 36.5664 55.1064 36.5283 55.1064 36.4814C55.1064 36.417 55.1328 36.3701 55.1855 36.3408C55.2383 36.3115 55.3027 36.291 55.3789 36.2793C55.6719 36.2441 55.9355 36.1943 56.1699 36.1299C56.4102 36.0654 56.6445 35.9482 56.873 35.7783C57.0137 35.667 57.1602 35.5205 57.3125 35.3389C57.4707 35.1514 57.5996 34.9551 57.6992 34.75C57.7695 34.6035 57.8457 34.5303 57.9277 34.5303C58.0039 34.5303 58.0508 34.5596 58.0684 34.6182C58.0859 34.6768 58.0947 34.7324 58.0947 34.7852ZM63.4912 36.4814C63.626 36.4346 63.8018 36.3906 64.0186 36.3496C64.2412 36.3027 64.4551 36.2559 64.6602 36.209C65.0762 36.1094 65.4219 35.9746 65.6973 35.8047C65.9727 35.6348 66.2041 35.4268 66.3916 35.1807C66.585 34.9287 66.749 34.6416 66.8838 34.3193C67.0186 33.9912 67.1533 33.6191 67.2881 33.2031C67.4053 32.8398 67.5225 32.585 67.6396 32.4385C67.7627 32.2861 67.8975 32.21 68.0439 32.21C68.1787 32.21 68.2725 32.2598 68.3252 32.3594C68.3779 32.459 68.4043 32.5908 68.4043 32.7549C68.4043 32.9131 68.3779 33.1182 68.3252 33.3701C68.2725 33.6162 68.2109 33.877 68.1406 34.1523C68.0762 34.4277 68.0176 34.7002 67.9648 34.9697C67.9121 35.2334 67.8857 35.4648 67.8857 35.6641C67.8857 35.7578 67.9033 35.8428 67.9385 35.9189C67.9795 35.9893 68.0586 36.0244 68.1758 36.0244C68.2461 36.0244 68.3311 36.0186 68.4307 36.0068C68.5303 35.9951 68.6357 35.9834 68.7471 35.9717C68.8584 35.96 68.9727 35.9482 69.0898 35.9365C69.2129 35.9248 69.3271 35.9189 69.4326 35.9189C69.6846 35.9189 69.8105 35.998 69.8105 36.1562C69.8105 36.2383 69.7783 36.2969 69.7139 36.332C69.6494 36.3672 69.5615 36.3848 69.4502 36.3848C69.3682 36.3848 69.2686 36.3877 69.1514 36.3936C69.0342 36.3994 68.9082 36.4141 68.7734 36.4375C68.6387 36.4551 68.5039 36.4814 68.3691 36.5166C68.2344 36.5518 68.1084 36.5986 67.9912 36.6572C67.8271 36.7393 67.6924 36.8418 67.5869 36.9648C67.4873 37.0879 67.4053 37.2139 67.3408 37.3428C67.2412 37.5479 67.1357 37.8291 67.0244 38.1865C66.9131 38.5439 66.8105 38.9424 66.7168 39.3818C66.623 39.8154 66.5439 40.2725 66.4795 40.7529C66.4209 41.2275 66.3916 41.6875 66.3916 42.1328C66.3916 42.7598 66.4443 43.2988 66.5498 43.75C66.6553 44.1953 66.8018 44.5645 66.9893 44.8574C67.1768 45.1504 67.3994 45.3672 67.6572 45.5078C67.915 45.6426 68.1934 45.71 68.4922 45.71C68.7266 45.71 68.9258 45.6777 69.0898 45.6133C69.2539 45.543 69.3887 45.4551 69.4941 45.3496C69.5996 45.2383 69.6758 45.1182 69.7227 44.9893C69.7695 44.8545 69.793 44.7227 69.793 44.5938C69.793 44.4355 69.749 44.3037 69.6611 44.1982C69.5791 44.0869 69.4854 43.9814 69.3799 43.8818C69.2744 43.7822 69.1777 43.6738 69.0898 43.5566C69.0078 43.4395 68.9668 43.2871 68.9668 43.0996C68.9668 42.8652 69.04 42.6689 69.1865 42.5107C69.3389 42.3525 69.5469 42.2734 69.8105 42.2734C69.9277 42.2734 70.0391 42.2939 70.1445 42.335C70.2559 42.376 70.3525 42.4434 70.4346 42.5371C70.5225 42.6309 70.5928 42.751 70.6455 42.8975C70.6982 43.0381 70.7246 43.208 70.7246 43.4072C70.7246 43.7529 70.6719 44.0986 70.5664 44.4443C70.4609 44.7842 70.2939 45.0918 70.0654 45.3672C69.8369 45.6367 69.541 45.8564 69.1777 46.0264C68.8145 46.2021 68.3721 46.29 67.8506 46.29C67.2646 46.29 66.7373 46.1699 66.2686 45.9297C65.7998 45.6836 65.4248 45.3525 65.1436 44.9365C64.8916 44.5498 64.707 44.1133 64.5898 43.627C64.4727 43.1348 64.4141 42.6367 64.4141 42.1328C64.4141 41.5469 64.458 40.9814 64.5459 40.4365C64.6338 39.8857 64.7305 39.3877 64.8359 38.9424C64.9414 38.4912 65.0381 38.1045 65.126 37.7822C65.2139 37.4541 65.2578 37.2168 65.2578 37.0703C65.2578 36.9648 65.2285 36.9004 65.1699 36.877C65.1113 36.8535 65.0322 36.8418 64.9326 36.8418C64.874 36.8418 64.792 36.8447 64.6865 36.8506C64.5869 36.8564 64.4756 36.8623 64.3525 36.8682C64.2295 36.874 64.1006 36.8799 63.9658 36.8857C63.8311 36.8916 63.7021 36.8945 63.5791 36.8945C63.3623 36.8945 63.2539 36.833 63.2539 36.71C63.2539 36.6104 63.333 36.5342 63.4912 36.4814ZM77.8877 41.3418C77.9697 41.4766 78.043 41.6582 78.1074 41.8867C78.1777 42.1152 78.2129 42.3467 78.2129 42.5811C78.2129 43.0088 78.1426 43.3926 78.002 43.7324C77.8613 44.0664 77.6592 44.3506 77.3955 44.585C77.1318 44.8135 76.8125 44.9893 76.4375 45.1123C76.0684 45.2354 75.6523 45.2969 75.1895 45.2969C74.5215 45.2969 73.9238 45.1855 73.3965 44.9629C72.875 44.7344 72.4355 44.418 72.0781 44.0137C71.7207 43.6094 71.4482 43.1289 71.2607 42.5723C71.0732 42.0098 70.9795 41.3945 70.9795 40.7266C70.9795 40.123 71.0439 39.5752 71.1729 39.083C71.3018 38.5908 71.4775 38.1514 71.7002 37.7646C71.9229 37.3779 72.1807 37.041 72.4736 36.7539C72.7666 36.4668 73.0771 36.2295 73.4053 36.042C73.7334 35.8545 74.0674 35.7168 74.4072 35.6289C74.7471 35.5352 75.0752 35.4883 75.3916 35.4883C75.7021 35.4883 76.0244 35.5293 76.3584 35.6113C76.6924 35.6934 76.9971 35.834 77.2725 36.0332C77.5537 36.2324 77.7822 36.4961 77.958 36.8242C78.1396 37.1465 78.2305 37.5537 78.2305 38.0459C78.2305 38.4736 78.166 38.8486 78.0371 39.1709C77.9141 39.4932 77.75 39.7715 77.5449 40.0059C77.3398 40.2402 77.1055 40.4336 76.8418 40.5859C76.584 40.7383 76.3174 40.8613 76.042 40.9551C75.7725 41.043 75.5059 41.1045 75.2422 41.1396C74.9844 41.1748 74.7559 41.1924 74.5566 41.1924C74.2695 41.1924 73.9883 41.1719 73.7129 41.1309C73.4434 41.0898 73.2324 41.0459 73.0801 40.999C73.1035 41.4561 73.1738 41.8984 73.291 42.3262C73.4141 42.748 73.5869 43.1201 73.8096 43.4424C74.0322 43.7646 74.3076 44.0225 74.6357 44.2158C74.9697 44.4092 75.3594 44.5059 75.8047 44.5059C76.1152 44.5059 76.3818 44.4531 76.6045 44.3477C76.833 44.2422 77.0205 44.1016 77.167 43.9258C77.3135 43.7441 77.4219 43.5361 77.4922 43.3018C77.5625 43.0674 77.5977 42.8213 77.5977 42.5635C77.5977 42.4111 77.5859 42.2529 77.5625 42.0889C77.5449 41.9248 77.5098 41.7695 77.457 41.623C77.4219 41.5352 77.3926 41.4531 77.3691 41.377C77.3457 41.3008 77.334 41.2393 77.334 41.1924C77.334 41.0752 77.3867 41.0166 77.4922 41.0166C77.5449 41.0166 77.6064 41.043 77.6768 41.0957C77.7529 41.1484 77.8232 41.2305 77.8877 41.3418ZM73.0449 40.4189C73.1973 40.4658 73.3701 40.5068 73.5635 40.542C73.7568 40.5713 74 40.5859 74.293 40.5859C74.6328 40.5859 74.9463 40.5215 75.2334 40.3926C75.5205 40.2637 75.7666 40.085 75.9717 39.8564C76.1768 39.6221 76.3379 39.3408 76.4551 39.0127C76.5723 38.6846 76.6309 38.3184 76.6309 37.9141C76.6309 37.5566 76.5898 37.2578 76.5078 37.0176C76.4316 36.7715 76.3291 36.5752 76.2002 36.4287C76.0713 36.2822 75.9219 36.1797 75.752 36.1211C75.5879 36.0566 75.418 36.0244 75.2422 36.0244C75.0195 36.0244 74.7793 36.0918 74.5215 36.2266C74.2637 36.3613 74.0234 36.5957 73.8008 36.9297C73.584 37.2637 73.4023 37.7148 73.2559 38.2832C73.1152 38.8457 73.0449 39.5576 73.0449 40.4189ZM82.5723 34.7324C82.8125 34.7324 83.0146 34.7441 83.1787 34.7676C83.3486 34.791 83.4922 34.8203 83.6094 34.8555C83.7324 34.8848 83.8379 34.9111 83.9258 34.9346C84.0137 34.958 84.1016 34.9697 84.1895 34.9697C84.2891 34.9697 84.3652 34.917 84.418 34.8115C84.4766 34.7061 84.5322 34.5771 84.585 34.4248C84.6611 34.2197 84.752 34.1172 84.8574 34.1172C84.9512 34.1172 85.0098 34.1465 85.0332 34.2051C85.0625 34.2637 85.0771 34.3193 85.0771 34.3721C85.0771 34.4424 85.0684 34.5156 85.0508 34.5918C85.0391 34.6621 85.0186 34.7559 84.9893 34.873C84.96 34.9902 84.9248 35.1367 84.8838 35.3125C84.8486 35.4883 84.8105 35.708 84.7695 35.9717C84.7344 36.1885 84.7051 36.376 84.6816 36.5342C84.6641 36.6924 84.6494 36.833 84.6377 36.9561C84.6318 37.0791 84.623 37.1904 84.6113 37.29C84.5996 37.3896 84.585 37.4922 84.5674 37.5977C84.5322 37.8203 84.4561 37.9316 84.3389 37.9316C84.2627 37.9316 84.2129 37.8965 84.1895 37.8262C84.166 37.75 84.1543 37.668 84.1543 37.5801V36.8945C84.1543 36.5488 84.1133 36.2588 84.0312 36.0244C83.9551 35.79 83.8467 35.6025 83.7061 35.4619C83.5713 35.3213 83.4072 35.2217 83.2139 35.1631C83.0264 35.1045 82.8242 35.0752 82.6074 35.0752C82.4141 35.0752 82.2266 35.1074 82.0449 35.1719C81.8691 35.2363 81.7139 35.333 81.5791 35.4619C81.4443 35.585 81.3359 35.7373 81.2539 35.9189C81.1719 36.1006 81.1309 36.3057 81.1309 36.5342C81.1309 36.833 81.2012 37.123 81.3418 37.4043C81.4824 37.6855 81.667 37.9609 81.8955 38.2305C82.124 38.5 82.3818 38.7725 82.6689 39.0479C82.9619 39.3174 83.2607 39.5957 83.5654 39.8828C83.876 40.1699 84.1748 40.4688 84.4619 40.7793C84.7549 41.0898 85.0156 41.4209 85.2441 41.7725C85.4727 42.1182 85.6572 42.4873 85.7979 42.8799C85.9385 43.2725 86.0088 43.6943 86.0088 44.1455C86.0088 44.749 85.915 45.2852 85.7275 45.7539C85.54 46.2168 85.2881 46.6064 84.9717 46.9229C84.6553 47.2393 84.2861 47.4795 83.8643 47.6436C83.4424 47.8076 82.9941 47.8896 82.5195 47.8896C82.1914 47.8896 81.8838 47.8545 81.5967 47.7842C81.3154 47.7139 81.0547 47.623 80.8145 47.5117C80.5801 47.4004 80.3691 47.2715 80.1816 47.125C79.9941 46.9844 79.8359 46.8438 79.707 46.7031C79.4668 46.4336 79.2617 46.2285 79.0918 46.0879C78.9219 45.9473 78.7373 45.877 78.5381 45.877C78.4326 45.877 78.3184 45.915 78.1953 45.9912C78.0723 46.0674 77.9492 46.1494 77.8262 46.2373C77.709 46.3252 77.5977 46.4072 77.4922 46.4834C77.3867 46.5596 77.2988 46.5977 77.2285 46.5977C77.1641 46.5977 77.1172 46.5771 77.0879 46.5361C77.0586 46.501 77.0439 46.4658 77.0439 46.4307C77.0439 46.3604 77.0879 46.2842 77.1758 46.2021C77.2109 46.167 77.2783 46.1025 77.3779 46.0088C77.4834 45.915 77.6123 45.792 77.7646 45.6396C77.917 45.4873 78.0869 45.2998 78.2744 45.0771C78.4678 44.8545 78.6699 44.5967 78.8809 44.3037C79.0801 44.0283 79.2441 43.7705 79.373 43.5303C79.502 43.2842 79.6133 43.0732 79.707 42.8975C79.8008 42.7158 79.8828 42.5723 79.9531 42.4668C80.0293 42.3613 80.1113 42.3086 80.1992 42.3086C80.2871 42.3086 80.3428 42.335 80.3662 42.3877C80.3955 42.4404 80.4102 42.499 80.4102 42.5635C80.4102 42.6514 80.3779 42.7656 80.3135 42.9062C80.249 43.0469 80.1787 43.2168 80.1025 43.416C80.0322 43.6152 79.9648 43.8467 79.9004 44.1104C79.8359 44.374 79.8037 44.6729 79.8037 45.0068C79.8037 45.2002 79.8418 45.4258 79.918 45.6836C79.9941 45.9414 80.1172 46.1846 80.2871 46.4131C80.457 46.6416 80.6797 46.835 80.9551 46.9932C81.2363 47.1572 81.5762 47.2393 81.9746 47.2393C82.291 47.2393 82.5752 47.1807 82.8271 47.0635C83.085 46.9463 83.3047 46.7793 83.4863 46.5625C83.668 46.3516 83.8057 46.0996 83.8994 45.8066C83.999 45.5078 84.0488 45.1768 84.0488 44.8135C84.0488 44.3506 83.9404 43.9053 83.7236 43.4775C83.5068 43.0439 83.2344 42.6221 82.9062 42.2119C82.5781 41.7959 82.2236 41.3887 81.8428 40.9902C81.4619 40.5918 81.1074 40.1963 80.7793 39.8037C80.4512 39.4053 80.1787 39.0068 79.9619 38.6084C79.7451 38.21 79.6367 37.8057 79.6367 37.3955C79.6367 36.9385 79.7217 36.543 79.8916 36.209C80.0615 35.8691 80.2842 35.5908 80.5596 35.374C80.8408 35.1572 81.1543 34.9961 81.5 34.8906C81.8516 34.7852 82.209 34.7324 82.5723 34.7324ZM89.1904 39.6631C88.9736 39.6631 88.7686 39.6221 88.5752 39.54C88.3877 39.458 88.2236 39.335 88.083 39.1709C87.9424 39.0068 87.8311 38.8018 87.749 38.5557C87.667 38.3096 87.626 38.0195 87.626 37.6855C87.626 37.3223 87.6758 36.9678 87.7754 36.6221C87.8809 36.2705 88.042 35.96 88.2588 35.6904C88.4756 35.415 88.751 35.1953 89.085 35.0312C89.4248 34.8672 89.832 34.7852 90.3066 34.7852C90.6992 34.7852 91.0449 34.8379 91.3438 34.9434C91.6484 35.043 91.915 35.1807 92.1436 35.3564C92.3721 35.5264 92.5654 35.7256 92.7236 35.9541C92.8877 36.1826 93.0254 36.4229 93.1367 36.6748C93.248 36.9209 93.3389 37.1729 93.4092 37.4307C93.4854 37.6826 93.5498 37.9229 93.6025 38.1514C93.6318 38.2803 93.667 38.4648 93.708 38.7051C93.7549 38.9395 93.8047 39.2119 93.8574 39.5225C93.9102 39.833 93.9658 40.167 94.0244 40.5244C94.083 40.876 94.1416 41.2334 94.2002 41.5967C94.2588 41.96 94.3145 42.3145 94.3672 42.6602C94.4258 43 94.4785 43.3135 94.5254 43.6006C94.5723 43.8818 94.6104 44.125 94.6396 44.3301C94.6748 44.5293 94.7012 44.667 94.7188 44.7432C94.7539 44.9248 94.792 45.1094 94.833 45.2969C94.8799 45.4844 94.9355 45.6572 95 45.8154C95.0703 45.9678 95.1553 46.0938 95.2549 46.1934C95.3545 46.293 95.4805 46.3428 95.6328 46.3428C95.7207 46.3428 95.7969 46.3223 95.8613 46.2812C95.9258 46.2402 95.9756 46.1846 96.0107 46.1143C96.0518 46.0439 96.0811 45.9648 96.0986 45.877C96.1162 45.7891 96.125 45.6982 96.125 45.6045C96.125 45.4932 96.1221 45.3818 96.1162 45.2705C96.1104 45.1533 96.1074 45.0537 96.1074 44.9717C96.1074 44.8838 96.1191 44.8076 96.1426 44.7432C96.166 44.6787 96.2129 44.6465 96.2832 44.6465C96.3477 44.6465 96.3975 44.6846 96.4326 44.7607C96.4736 44.8311 96.5029 44.916 96.5205 45.0156C96.5439 45.1094 96.5586 45.2061 96.5645 45.3057C96.5703 45.3994 96.5732 45.4697 96.5732 45.5166C96.5732 45.7217 96.5557 45.9531 96.5205 46.2109C96.4854 46.4688 96.4121 46.7178 96.3008 46.958C96.1953 47.2041 96.0195 47.4062 95.7734 47.5645C95.5273 47.7227 95.2432 47.8018 94.9209 47.8018C94.6396 47.8018 94.3965 47.7607 94.1914 47.6787C93.9922 47.5967 93.8193 47.4941 93.6729 47.3711C93.5322 47.248 93.4121 47.1162 93.3125 46.9756C93.2188 46.835 93.1426 46.7031 93.084 46.5801C92.9199 46.2637 92.7939 45.918 92.7061 45.543C92.624 45.1621 92.5566 44.7988 92.5039 44.4531C92.416 44.5996 92.2812 44.7812 92.0996 44.998C91.9238 45.2148 91.7041 45.4229 91.4404 45.6221C91.1768 45.8213 90.8721 45.9912 90.5264 46.1318C90.1807 46.2725 89.7969 46.3428 89.375 46.3428C88.9062 46.3428 88.5049 46.2754 88.1709 46.1406C87.8428 46.0117 87.5732 45.8359 87.3623 45.6133C87.1514 45.3848 86.9961 45.1211 86.8965 44.8223C86.7969 44.5176 86.7471 44.1953 86.7471 43.8555C86.7471 43.4922 86.8145 43.126 86.9492 42.7568C87.084 42.3877 87.3037 42.0537 87.6084 41.7549C87.9189 41.4561 88.3203 41.2129 88.8125 41.0254C89.3105 40.8379 89.917 40.7441 90.6318 40.7441C90.7959 40.7441 90.9541 40.7529 91.1064 40.7705C91.2646 40.7822 91.4053 40.7969 91.5283 40.8145C91.6572 40.832 91.7656 40.8496 91.8535 40.8672C91.9473 40.8848 92.0146 40.8965 92.0557 40.9023C92.0205 40.3984 91.9766 39.8945 91.9238 39.3906C91.9004 39.1797 91.874 38.957 91.8447 38.7227C91.8213 38.4883 91.7949 38.2539 91.7656 38.0195C91.7363 37.7793 91.7041 37.5449 91.6689 37.3164C91.6338 37.0879 91.5957 36.874 91.5547 36.6748C91.4609 36.2236 91.2764 35.8662 91.001 35.6025C90.7314 35.333 90.3857 35.1982 89.9639 35.1982C89.7354 35.1982 89.5332 35.2393 89.3574 35.3213C89.1875 35.4033 89.041 35.5088 88.918 35.6377C88.8008 35.7666 88.7129 35.9131 88.6543 36.0771C88.5957 36.2354 88.5664 36.3936 88.5664 36.5518C88.5664 36.7217 88.6074 36.8652 88.6895 36.9824C88.7715 37.0938 88.8711 37.1934 88.9883 37.2812C89.1113 37.3691 89.2432 37.4541 89.3838 37.5361C89.5244 37.6123 89.6533 37.7031 89.7705 37.8086C89.8936 37.9082 89.9961 38.0312 90.0781 38.1777C90.1602 38.3184 90.2012 38.4971 90.2012 38.7139C90.2012 39.001 90.1016 39.2324 89.9023 39.4082C89.709 39.5781 89.4717 39.6631 89.1904 39.6631ZM92.126 41.4473C92.085 41.4297 92.0117 41.4092 91.9062 41.3857C91.8066 41.3564 91.6865 41.3301 91.5459 41.3066C91.4053 41.2773 91.2529 41.2539 91.0889 41.2363C90.9307 41.2188 90.7725 41.21 90.6143 41.21C90.3037 41.21 90.0137 41.2539 89.7441 41.3418C89.4805 41.4297 89.252 41.5615 89.0586 41.7373C88.8652 41.9072 88.7129 42.124 88.6016 42.3877C88.4902 42.6455 88.4346 42.9443 88.4346 43.2842C88.4346 43.5947 88.4844 43.8525 88.584 44.0576C88.6895 44.2568 88.8213 44.415 88.9795 44.5322C89.1436 44.6494 89.3223 44.7314 89.5156 44.7783C89.7148 44.8252 89.9082 44.8486 90.0957 44.8486C90.3945 44.8486 90.6787 44.8018 90.9482 44.708C91.2178 44.6143 91.4551 44.5059 91.6602 44.3828C91.8652 44.2598 92.0322 44.1396 92.1611 44.0225C92.29 43.9053 92.3691 43.8262 92.3984 43.7852C92.3574 43.3926 92.3193 43.0352 92.2842 42.7129C92.2666 42.5723 92.249 42.4346 92.2314 42.2998C92.2197 42.165 92.2051 42.0391 92.1875 41.9219C92.1758 41.8047 92.1641 41.7051 92.1523 41.623C92.1406 41.541 92.1318 41.4824 92.126 41.4473ZM98.6387 34.6797C98.6855 34.6797 98.7324 34.7559 98.7793 34.9082C98.8262 35.0547 98.873 35.248 98.9199 35.4883C98.9668 35.7285 99.0137 36.0068 99.0605 36.3232C99.1074 36.6338 99.1543 36.9502 99.2012 37.2725L99.5176 39.4873C99.5469 39.2939 99.5967 39.0713 99.667 38.8193C99.7432 38.5674 99.8428 38.3066 99.9658 38.0371C100.089 37.7676 100.238 37.5039 100.414 37.2461C100.59 36.9883 100.792 36.7568 101.021 36.5518C101.255 36.3467 101.516 36.1826 101.803 36.0596C102.096 35.9307 102.421 35.8662 102.778 35.8662C103.218 35.8662 103.599 35.9512 103.921 36.1211C104.243 36.2852 104.51 36.5166 104.721 36.8154C104.932 37.1084 105.087 37.46 105.187 37.8701C105.286 38.2803 105.336 38.7285 105.336 39.2148C105.336 39.6543 105.31 40.0967 105.257 40.542C105.21 40.9814 105.157 41.415 105.099 41.8428C105.046 42.2705 104.993 42.6836 104.94 43.082C104.894 43.4805 104.87 43.8525 104.87 44.1982C104.87 44.4033 104.888 44.582 104.923 44.7344C104.958 44.8867 105.011 45.0273 105.081 45.1562C105.163 45.2793 105.263 45.3877 105.38 45.4814C105.503 45.5693 105.617 45.6543 105.723 45.7363C105.834 45.8125 105.928 45.8916 106.004 45.9736C106.086 46.0498 106.127 46.1318 106.127 46.2197C106.127 46.2725 106.112 46.3164 106.083 46.3516C106.054 46.3926 106.004 46.4131 105.934 46.4131C105.828 46.4131 105.711 46.3721 105.582 46.29C105.459 46.2139 105.304 46.1172 105.116 46C104.935 45.877 104.715 45.748 104.457 45.6133C104.199 45.4727 103.886 45.3438 103.517 45.2266C103.241 45.1328 102.963 45.0596 102.682 45.0068C102.406 44.9541 102.084 44.9189 101.715 44.9014C101.51 44.8838 101.407 44.8252 101.407 44.7256C101.407 44.6143 101.475 44.5586 101.609 44.5586C101.691 44.5586 101.806 44.5586 101.952 44.5586C102.099 44.5586 102.248 44.5527 102.4 44.541C102.635 44.5234 102.828 44.4531 102.98 44.3301C103.133 44.2012 103.247 43.9668 103.323 43.627C103.347 43.4922 103.37 43.3223 103.394 43.1172C103.417 42.9062 103.438 42.6836 103.455 42.4492C103.473 42.209 103.487 41.9658 103.499 41.7197C103.511 41.4736 103.517 41.2393 103.517 41.0166C103.517 40.8174 103.514 40.5889 103.508 40.3311C103.502 40.0674 103.481 39.7949 103.446 39.5137C103.417 39.2324 103.367 38.957 103.297 38.6875C103.232 38.418 103.136 38.1777 103.007 37.9668C102.878 37.7559 102.714 37.5859 102.515 37.457C102.315 37.3223 102.072 37.2549 101.785 37.2549C101.539 37.2549 101.313 37.3164 101.108 37.4395C100.909 37.5625 100.73 37.7354 100.572 37.958C100.414 38.1748 100.279 38.4326 100.168 38.7314C100.057 39.0303 99.9717 39.3584 99.9131 39.7158C99.8486 40.0791 99.8047 40.4541 99.7812 40.8408C99.7637 41.2217 99.7549 41.6025 99.7549 41.9834C99.7549 42.3057 99.7666 42.6162 99.79 42.915C99.8135 43.208 99.8457 43.4805 99.8867 43.7324C99.9277 43.9785 99.9775 44.1982 100.036 44.3916C100.095 44.585 100.162 44.7373 100.238 44.8486C100.35 45.001 100.47 45.1152 100.599 45.1914C100.728 45.2676 100.836 45.3203 100.924 45.3496C101.041 45.3848 101.123 45.417 101.17 45.4463C101.223 45.4697 101.249 45.5049 101.249 45.5518C101.249 45.5869 101.22 45.6191 101.161 45.6484C101.108 45.6777 101.018 45.6924 100.889 45.6924C100.766 45.6924 100.631 45.6836 100.484 45.666C100.338 45.6426 100.186 45.6191 100.027 45.5957C99.8691 45.5723 99.7051 45.5518 99.5352 45.5342C99.3652 45.5107 99.1982 45.499 99.0342 45.499C98.8701 45.499 98.7031 45.5049 98.5332 45.5166C98.3633 45.5283 98.1992 45.54 98.041 45.5518C97.8887 45.5635 97.748 45.5752 97.6191 45.5869C97.4902 45.5986 97.3877 45.6045 97.3115 45.6045C97.083 45.6045 96.9688 45.5312 96.9688 45.3848C96.9688 45.332 96.9863 45.2881 97.0215 45.2529C97.0625 45.2119 97.1328 45.1855 97.2324 45.1738C97.3145 45.168 97.3877 45.1621 97.4521 45.1562C97.5166 45.1504 97.5811 45.1475 97.6455 45.1475C97.7158 45.1416 97.7861 45.1357 97.8564 45.1299C97.9326 45.124 98.0205 45.1152 98.1201 45.1035C98.3076 45.0742 98.4336 45.0068 98.498 44.9014C98.5684 44.79 98.6035 44.6406 98.6035 44.4531C98.6035 44.1309 98.5742 43.7383 98.5156 43.2754C98.4629 42.8125 98.3896 42.3027 98.2959 41.7461C98.2021 41.1895 98.0879 40.6006 97.9531 39.9795C97.8242 39.3525 97.6865 38.7139 97.54 38.0635C97.4697 37.7295 97.3877 37.4805 97.2939 37.3164C97.2061 37.1523 97.0771 37.0703 96.9072 37.0703C96.8193 37.0703 96.7285 37.0879 96.6348 37.123C96.541 37.1523 96.4473 37.1875 96.3535 37.2285C96.2656 37.2637 96.1807 37.2988 96.0986 37.334C96.0166 37.3633 95.9404 37.3779 95.8701 37.3779C95.7588 37.3779 95.7031 37.3311 95.7031 37.2373C95.7031 37.1611 95.7324 37.1084 95.791 37.0791C95.8555 37.0439 95.9229 37.0117 95.9932 36.9824C96.1572 36.918 96.333 36.8359 96.5205 36.7363C96.7139 36.6367 96.9219 36.502 97.1445 36.332C97.3613 36.1621 97.5547 35.9805 97.7246 35.7871C97.8945 35.5938 98.041 35.415 98.1641 35.251C98.2871 35.0869 98.3867 34.9521 98.4629 34.8467C98.5391 34.7354 98.5977 34.6797 98.6387 34.6797ZM108.86 39.6631C108.644 39.6631 108.438 39.6221 108.245 39.54C108.058 39.458 107.894 39.335 107.753 39.1709C107.612 39.0068 107.501 38.8018 107.419 38.5557C107.337 38.3096 107.296 38.0195 107.296 37.6855C107.296 37.3223 107.346 36.9678 107.445 36.6221C107.551 36.2705 107.712 35.96 107.929 35.6904C108.146 35.415 108.421 35.1953 108.755 35.0312C109.095 34.8672 109.502 34.7852 109.977 34.7852C110.369 34.7852 110.715 34.8379 111.014 34.9434C111.318 35.043 111.585 35.1807 111.813 35.3564C112.042 35.5264 112.235 35.7256 112.394 35.9541C112.558 36.1826 112.695 36.4229 112.807 36.6748C112.918 36.9209 113.009 37.1729 113.079 37.4307C113.155 37.6826 113.22 37.9229 113.272 38.1514C113.302 38.2803 113.337 38.4648 113.378 38.7051C113.425 38.9395 113.475 39.2119 113.527 39.5225C113.58 39.833 113.636 40.167 113.694 40.5244C113.753 40.876 113.812 41.2334 113.87 41.5967C113.929 41.96 113.984 42.3145 114.037 42.6602C114.096 43 114.148 43.3135 114.195 43.6006C114.242 43.8818 114.28 44.125 114.31 44.3301C114.345 44.5293 114.371 44.667 114.389 44.7432C114.424 44.9248 114.462 45.1094 114.503 45.2969C114.55 45.4844 114.605 45.6572 114.67 45.8154C114.74 45.9678 114.825 46.0938 114.925 46.1934C115.024 46.293 115.15 46.3428 115.303 46.3428C115.391 46.3428 115.467 46.3223 115.531 46.2812C115.596 46.2402 115.646 46.1846 115.681 46.1143C115.722 46.0439 115.751 45.9648 115.769 45.877C115.786 45.7891 115.795 45.6982 115.795 45.6045C115.795 45.4932 115.792 45.3818 115.786 45.2705C115.78 45.1533 115.777 45.0537 115.777 44.9717C115.777 44.8838 115.789 44.8076 115.812 44.7432C115.836 44.6787 115.883 44.6465 115.953 44.6465C116.018 44.6465 116.067 44.6846 116.103 44.7607C116.144 44.8311 116.173 44.916 116.19 45.0156C116.214 45.1094 116.229 45.2061 116.234 45.3057C116.24 45.3994 116.243 45.4697 116.243 45.5166C116.243 45.7217 116.226 45.9531 116.19 46.2109C116.155 46.4688 116.082 46.7178 115.971 46.958C115.865 47.2041 115.689 47.4062 115.443 47.5645C115.197 47.7227 114.913 47.8018 114.591 47.8018C114.31 47.8018 114.066 47.7607 113.861 47.6787C113.662 47.5967 113.489 47.4941 113.343 47.3711C113.202 47.248 113.082 47.1162 112.982 46.9756C112.889 46.835 112.812 46.7031 112.754 46.5801C112.59 46.2637 112.464 45.918 112.376 45.543C112.294 45.1621 112.227 44.7988 112.174 44.4531C112.086 44.5996 111.951 44.7812 111.77 44.998C111.594 45.2148 111.374 45.4229 111.11 45.6221C110.847 45.8213 110.542 45.9912 110.196 46.1318C109.851 46.2725 109.467 46.3428 109.045 46.3428C108.576 46.3428 108.175 46.2754 107.841 46.1406C107.513 46.0117 107.243 45.8359 107.032 45.6133C106.821 45.3848 106.666 45.1211 106.566 44.8223C106.467 44.5176 106.417 44.1953 106.417 43.8555C106.417 43.4922 106.484 43.126 106.619 42.7568C106.754 42.3877 106.974 42.0537 107.278 41.7549C107.589 41.4561 107.99 41.2129 108.482 41.0254C108.98 40.8379 109.587 40.7441 110.302 40.7441C110.466 40.7441 110.624 40.7529 110.776 40.7705C110.935 40.7822 111.075 40.7969 111.198 40.8145C111.327 40.832 111.436 40.8496 111.523 40.8672C111.617 40.8848 111.685 40.8965 111.726 40.9023C111.69 40.3984 111.646 39.8945 111.594 39.3906C111.57 39.1797 111.544 38.957 111.515 38.7227C111.491 38.4883 111.465 38.2539 111.436 38.0195C111.406 37.7793 111.374 37.5449 111.339 37.3164C111.304 37.0879 111.266 36.874 111.225 36.6748C111.131 36.2236 110.946 35.8662 110.671 35.6025C110.401 35.333 110.056 35.1982 109.634 35.1982C109.405 35.1982 109.203 35.2393 109.027 35.3213C108.857 35.4033 108.711 35.5088 108.588 35.6377C108.471 35.7666 108.383 35.9131 108.324 36.0771C108.266 36.2354 108.236 36.3936 108.236 36.5518C108.236 36.7217 108.277 36.8652 108.359 36.9824C108.441 37.0938 108.541 37.1934 108.658 37.2812C108.781 37.3691 108.913 37.4541 109.054 37.5361C109.194 37.6123 109.323 37.7031 109.44 37.8086C109.563 37.9082 109.666 38.0312 109.748 38.1777C109.83 38.3184 109.871 38.4971 109.871 38.7139C109.871 39.001 109.771 39.2324 109.572 39.4082C109.379 39.5781 109.142 39.6631 108.86 39.6631ZM111.796 41.4473C111.755 41.4297 111.682 41.4092 111.576 41.3857C111.477 41.3564 111.356 41.3301 111.216 41.3066C111.075 41.2773 110.923 41.2539 110.759 41.2363C110.601 41.2188 110.442 41.21 110.284 41.21C109.974 41.21 109.684 41.2539 109.414 41.3418C109.15 41.4297 108.922 41.5615 108.729 41.7373C108.535 41.9072 108.383 42.124 108.271 42.3877C108.16 42.6455 108.104 42.9443 108.104 43.2842C108.104 43.5947 108.154 43.8525 108.254 44.0576C108.359 44.2568 108.491 44.415 108.649 44.5322C108.813 44.6494 108.992 44.7314 109.186 44.7783C109.385 44.8252 109.578 44.8486 109.766 44.8486C110.064 44.8486 110.349 44.8018 110.618 44.708C110.888 44.6143 111.125 44.5059 111.33 44.3828C111.535 44.2598 111.702 44.1396 111.831 44.0225C111.96 43.9053 112.039 43.8262 112.068 43.7852C112.027 43.3926 111.989 43.0352 111.954 42.7129C111.937 42.5723 111.919 42.4346 111.901 42.2998C111.89 42.165 111.875 42.0391 111.857 41.9219C111.846 41.8047 111.834 41.7051 111.822 41.623C111.811 41.541 111.802 41.4824 111.796 41.4473ZM119.363 29.5645C119.363 29.6289 119.363 29.7812 119.363 30.0215C119.363 30.2617 119.363 30.5488 119.363 30.8828C119.369 31.2168 119.372 31.5742 119.372 31.9551C119.378 32.3359 119.387 32.7021 119.398 33.0537C119.41 33.5459 119.431 34.1143 119.46 34.7588C119.489 35.4033 119.519 36.0742 119.548 36.7715C119.583 37.4629 119.618 38.1602 119.653 38.8633C119.694 39.5664 119.732 40.2256 119.768 40.8408C119.809 41.4502 119.844 41.9922 119.873 42.4668C119.902 42.9414 119.926 43.3018 119.943 43.5479C119.967 43.8936 120.014 44.166 120.084 44.3652C120.154 44.5645 120.251 44.7227 120.374 44.8398C120.503 44.957 120.661 45.0479 120.849 45.1123C121.042 45.1768 121.273 45.2441 121.543 45.3145C121.643 45.3438 121.707 45.376 121.736 45.4111C121.766 45.4463 121.78 45.4873 121.78 45.5342C121.78 45.5869 121.76 45.6338 121.719 45.6748C121.678 45.71 121.602 45.7275 121.49 45.7275C121.438 45.7275 121.329 45.7217 121.165 45.71C121.007 45.6982 120.819 45.6836 120.603 45.666C120.386 45.6484 120.148 45.6338 119.891 45.6221C119.639 45.6104 119.393 45.6045 119.152 45.6045C118.959 45.6045 118.754 45.6133 118.537 45.6309C118.32 45.6484 118.109 45.666 117.904 45.6836C117.699 45.7012 117.506 45.7188 117.324 45.7363C117.148 45.7539 117.002 45.7627 116.885 45.7627C116.803 45.7627 116.721 45.748 116.639 45.7188C116.562 45.6895 116.524 45.6221 116.524 45.5166C116.524 45.3584 116.639 45.2793 116.867 45.2793C117.02 45.2793 117.189 45.2705 117.377 45.2529C117.57 45.2354 117.729 45.2031 117.852 45.1562C117.951 45.1211 118.03 45.0713 118.089 45.0068C118.147 44.9424 118.191 44.8721 118.221 44.7959C118.256 44.7139 118.279 44.6318 118.291 44.5498C118.303 44.4619 118.309 44.374 118.309 44.2861C118.309 44.1807 118.3 44.0137 118.282 43.7852C118.271 43.5508 118.253 43.2783 118.229 42.9678C118.206 42.6572 118.177 42.3145 118.142 41.9395C118.112 41.5645 118.08 41.1807 118.045 40.7881C118.01 40.3896 117.975 39.9941 117.939 39.6016C117.904 39.209 117.869 38.8369 117.834 38.4854C117.799 38.1338 117.767 37.8145 117.737 37.5273C117.714 37.2402 117.693 37.0059 117.676 36.8242C117.646 36.5547 117.617 36.2764 117.588 35.9893C117.559 35.6963 117.529 35.4092 117.5 35.1279C117.471 34.8467 117.438 34.5771 117.403 34.3193C117.368 34.0615 117.333 33.8271 117.298 33.6162C117.263 33.4111 117.201 33.2529 117.113 33.1416C117.031 33.0244 116.905 32.9658 116.735 32.9658C116.601 32.9658 116.442 32.998 116.261 33.0625C116.085 33.127 115.906 33.1973 115.725 33.2734C115.543 33.3496 115.373 33.4199 115.215 33.4844C115.051 33.5488 114.922 33.5811 114.828 33.5811C114.764 33.5811 114.708 33.5664 114.661 33.5371C114.608 33.502 114.582 33.4434 114.582 33.3613C114.582 33.25 114.641 33.1562 114.758 33.0801C114.811 33.0391 114.881 32.998 114.969 32.957C115.057 32.916 115.174 32.8604 115.32 32.79C115.461 32.7139 115.637 32.6143 115.848 32.4912C116.059 32.3682 116.313 32.2041 116.612 31.999C116.929 31.7822 117.216 31.5537 117.474 31.3135C117.731 31.0732 117.96 30.8418 118.159 30.6191C118.364 30.3906 118.534 30.1826 118.669 29.9951C118.81 29.8076 118.915 29.6582 118.985 29.5469C119.05 29.459 119.1 29.3887 119.135 29.3359C119.17 29.2832 119.211 29.2568 119.258 29.2568C119.305 29.2568 119.334 29.292 119.346 29.3623C119.357 29.4268 119.363 29.4941 119.363 29.5645Z" fill="#E6E5A3"/>
<path d="M60.249 8.74315C60.3311 8.74315 60.3838 8.76659 60.4072 8.81346C60.4307 8.86034 60.4424 8.90721 60.4424 8.95409C60.4424 9.03612 60.4307 9.14745 60.4072 9.28807C60.3838 9.42284 60.3545 9.60448 60.3193 9.83299C60.2842 10.0615 60.2432 10.3457 60.1963 10.6855C60.1553 11.0195 60.1113 11.4267 60.0645 11.9072C60 12.581 59.9414 13.2607 59.8887 13.9463C59.8418 14.6318 59.7979 15.2998 59.7568 15.9502C59.7217 16.6006 59.6895 17.2246 59.6602 17.8223C59.6309 18.414 59.6045 18.959 59.5811 19.457C59.5635 19.9551 59.5488 20.3945 59.5371 20.7754C59.5254 21.1562 59.5166 21.458 59.5107 21.6806C59.6045 21.4053 59.7305 21.1299 59.8887 20.8545C60.0527 20.5791 60.249 20.3301 60.4775 20.1074C60.7061 19.8848 60.9697 19.706 61.2686 19.5713C61.5674 19.4306 61.8984 19.3603 62.2617 19.3603C62.4785 19.3603 62.707 19.3896 62.9473 19.4482C63.1875 19.501 63.4189 19.6006 63.6416 19.7471C63.8701 19.8935 64.0752 20.0928 64.2568 20.3447C64.4443 20.5908 64.5908 20.9101 64.6963 21.3027C64.79 21.6836 64.8486 22.0586 64.8721 22.4277C64.8955 22.791 64.9072 23.1836 64.9072 23.6055C64.9072 23.9219 64.9014 24.2734 64.8896 24.6601C64.8779 25.0469 64.8721 25.4394 64.8721 25.8379C64.8721 26.1015 64.8955 26.3096 64.9424 26.4619C64.9951 26.6084 65.0654 26.7197 65.1533 26.7959C65.2471 26.8721 65.3555 26.9219 65.4785 26.9453C65.6074 26.9687 65.748 26.9834 65.9004 26.9892C65.959 26.9951 66.0176 27.001 66.0762 27.0068C66.1406 27.0127 66.1963 27.0244 66.2432 27.042C66.2959 27.0596 66.3369 27.0859 66.3662 27.1211C66.4014 27.1562 66.4189 27.2031 66.4189 27.2617C66.4189 27.3262 66.3867 27.3848 66.3223 27.4375C66.2578 27.4902 66.1406 27.5166 65.9707 27.5166C65.7363 27.5166 65.4785 27.4902 65.1973 27.4375C64.9219 27.3789 64.6084 27.3496 64.2568 27.3496C64.0342 27.3496 63.7998 27.373 63.5537 27.4199C63.3135 27.4668 63.0791 27.5195 62.8506 27.5781C62.6279 27.6308 62.4229 27.6806 62.2354 27.7275C62.0479 27.7744 61.9014 27.7978 61.7959 27.7978C61.7021 27.7978 61.6436 27.7832 61.6201 27.7539C61.6025 27.7187 61.5938 27.6865 61.5938 27.6572C61.5938 27.6103 61.6113 27.5752 61.6465 27.5517C61.6816 27.5224 61.749 27.4931 61.8486 27.4639C61.9658 27.4228 62.0684 27.3848 62.1562 27.3496C62.25 27.3144 62.335 27.2734 62.4111 27.2265C62.499 27.1738 62.5811 27.0889 62.6572 26.9717C62.7393 26.8486 62.8008 26.6523 62.8418 26.3828C62.8594 26.2363 62.874 26.0664 62.8857 25.873C62.8975 25.6738 62.9062 25.4658 62.9121 25.249C62.9238 25.0264 62.9326 24.7978 62.9385 24.5635C62.9443 24.3291 62.9473 24.0947 62.9473 23.8603C62.9473 23.4736 62.9414 23.1103 62.9297 22.7705C62.918 22.4248 62.8945 22.1406 62.8594 21.918C62.7832 21.4258 62.6426 21.0361 62.4375 20.749C62.2324 20.4619 61.9395 20.3183 61.5586 20.3183C61.377 20.3183 61.2129 20.3535 61.0664 20.4238C60.9258 20.4941 60.7998 20.5849 60.6885 20.6963C60.5771 20.8076 60.4775 20.9336 60.3896 21.0742C60.3018 21.2148 60.2256 21.3584 60.1611 21.5049C60.0439 21.7568 59.9326 22.0791 59.8271 22.4717C59.7217 22.8642 59.6309 23.289 59.5547 23.7461C59.4785 24.1973 59.417 24.6601 59.3701 25.1348C59.3291 25.6035 59.3086 26.043 59.3086 26.4531C59.3086 26.6465 59.332 26.8047 59.3789 26.9277C59.4258 27.0449 59.4932 27.1416 59.5811 27.2178C59.6748 27.2881 59.7832 27.3437 59.9062 27.3848C60.0352 27.4258 60.1787 27.4639 60.3369 27.499C60.4189 27.5166 60.4834 27.54 60.5303 27.5693C60.583 27.5928 60.6094 27.6396 60.6094 27.7099C60.6094 27.8447 60.5068 27.9121 60.3018 27.9121C60.1436 27.9121 59.9502 27.8945 59.7217 27.8594C59.499 27.8183 59.2588 27.7744 59.001 27.7275C58.749 27.6748 58.4883 27.6308 58.2188 27.5957C57.9551 27.5547 57.7002 27.5342 57.4541 27.5342C57.1318 27.5342 56.8447 27.5488 56.5928 27.5781C56.3408 27.6074 56.124 27.6221 55.9424 27.6221C55.6904 27.6221 55.5645 27.543 55.5645 27.3848C55.5645 27.3203 55.5908 27.2705 55.6436 27.2353C55.6904 27.1943 55.7549 27.1738 55.8369 27.1738C55.8896 27.1738 55.9512 27.1767 56.0215 27.1826C56.0918 27.1885 56.1621 27.1914 56.2324 27.1914C56.4434 27.1914 56.625 27.168 56.7773 27.1211C56.9297 27.0683 57.0586 26.9805 57.1641 26.8574C57.2754 26.7344 57.3691 26.5703 57.4453 26.3652C57.5215 26.1543 57.5859 25.8906 57.6387 25.5742C57.6738 25.3691 57.7119 25.0556 57.7529 24.6338C57.7998 24.2119 57.8496 23.7226 57.9023 23.166C57.9551 22.6035 58.0078 21.9941 58.0605 21.3379C58.1133 20.6758 58.1631 20.0049 58.21 19.3252C58.2627 18.6396 58.3125 17.9658 58.3594 17.3037C58.4062 16.6357 58.4443 16.0146 58.4736 15.4404C58.5088 14.8662 58.5352 14.3594 58.5527 13.9199C58.5762 13.4746 58.5879 13.1348 58.5879 12.9004C58.5879 12.5547 58.5557 12.2822 58.4912 12.083C58.4326 11.8779 58.3564 11.7226 58.2627 11.6172C58.1689 11.5117 58.0635 11.4443 57.9463 11.415C57.835 11.3857 57.7266 11.3711 57.6211 11.3711C57.5156 11.3711 57.4014 11.3828 57.2783 11.4062C57.1553 11.4238 57.0293 11.4443 56.9004 11.4678C56.7773 11.4912 56.6543 11.5146 56.5312 11.5381C56.4141 11.5556 56.3027 11.5644 56.1973 11.5644C56.1035 11.5644 56.0391 11.5469 56.0039 11.5117C55.9629 11.4707 55.9424 11.418 55.9424 11.3535C55.9424 11.2773 55.9658 11.2187 56.0127 11.1777C56.0596 11.1367 56.1328 11.0986 56.2324 11.0635C56.373 11.0166 56.5254 10.9697 56.6895 10.9228C56.8535 10.876 57.0293 10.8203 57.2168 10.7558C57.4102 10.6855 57.6152 10.6035 57.832 10.5098C58.0488 10.4101 58.2832 10.2871 58.5352 10.1406C58.8223 9.97655 59.0566 9.81248 59.2383 9.64842C59.4199 9.4785 59.5723 9.32909 59.6953 9.20018C59.8184 9.06541 59.918 8.95702 59.9941 8.87498C60.0762 8.78709 60.1611 8.74315 60.249 8.74315Z" fill="#557153"/>
<path d="M48.709 16.6797C48.7559 16.6797 48.8027 16.7558 48.8496 16.9082C48.8965 17.0547 48.9434 17.248 48.9902 17.4883C49.0371 17.7285 49.084 18.0068 49.1309 18.3232C49.1777 18.6338 49.2246 18.9502 49.2715 19.2724L49.5879 21.4873C49.6172 21.2939 49.667 21.0713 49.7373 20.8193C49.8135 20.5674 49.9131 20.3066 50.0361 20.0371C50.1592 19.7676 50.3086 19.5039 50.4844 19.2461C50.6602 18.9883 50.8623 18.7568 51.0908 18.5517C51.3252 18.3467 51.5859 18.1826 51.873 18.0596C52.166 17.9306 52.4912 17.8662 52.8486 17.8662C53.2881 17.8662 53.6689 17.9512 53.9912 18.1211C54.3135 18.2851 54.5801 18.5166 54.791 18.8154C55.002 19.1084 55.1572 19.4599 55.2568 19.8701C55.3564 20.2803 55.4062 20.7285 55.4062 21.2148C55.4062 21.6543 55.3799 22.0967 55.3271 22.542C55.2803 22.9814 55.2275 23.415 55.1689 23.8428C55.1162 24.2705 55.0635 24.6836 55.0107 25.082C54.9639 25.4805 54.9404 25.8525 54.9404 26.1982C54.9404 26.4033 54.958 26.582 54.9932 26.7344C55.0283 26.8867 55.0811 27.0273 55.1514 27.1562C55.2334 27.2793 55.333 27.3877 55.4502 27.4814C55.5732 27.5693 55.6875 27.6543 55.793 27.7363C55.9043 27.8125 55.998 27.8916 56.0742 27.9736C56.1562 28.0498 56.1973 28.1318 56.1973 28.2197C56.1973 28.2724 56.1826 28.3164 56.1533 28.3515C56.124 28.3926 56.0742 28.4131 56.0039 28.4131C55.8984 28.4131 55.7812 28.3721 55.6523 28.29C55.5293 28.2139 55.374 28.1172 55.1865 28C55.0049 27.8769 54.7852 27.748 54.5273 27.6133C54.2695 27.4726 53.9561 27.3437 53.5869 27.2265C53.3115 27.1328 53.0332 27.0596 52.752 27.0068C52.4766 26.9541 52.1543 26.9189 51.7852 26.9014C51.5801 26.8838 51.4775 26.8252 51.4775 26.7256C51.4775 26.6142 51.5449 26.5586 51.6797 26.5586C51.7617 26.5586 51.876 26.5586 52.0225 26.5586C52.1689 26.5586 52.3184 26.5527 52.4707 26.541C52.7051 26.5234 52.8984 26.4531 53.0508 26.3301C53.2031 26.2012 53.3174 25.9668 53.3936 25.6269C53.417 25.4922 53.4404 25.3223 53.4639 25.1172C53.4873 24.9062 53.5078 24.6836 53.5254 24.4492C53.543 24.209 53.5576 23.9658 53.5693 23.7197C53.5811 23.4736 53.5869 23.2392 53.5869 23.0166C53.5869 22.8174 53.584 22.5889 53.5781 22.331C53.5723 22.0674 53.5518 21.7949 53.5166 21.5137C53.4873 21.2324 53.4375 20.957 53.3672 20.6875C53.3027 20.418 53.2061 20.1777 53.0771 19.9668C52.9482 19.7558 52.7842 19.5859 52.585 19.457C52.3857 19.3223 52.1426 19.2549 51.8555 19.2549C51.6094 19.2549 51.3838 19.3164 51.1787 19.4394C50.9795 19.5625 50.8008 19.7353 50.6426 19.958C50.4844 20.1748 50.3496 20.4326 50.2383 20.7314C50.127 21.0303 50.042 21.3584 49.9834 21.7158C49.9189 22.0791 49.875 22.4541 49.8516 22.8408C49.834 23.2217 49.8252 23.6025 49.8252 23.9834C49.8252 24.3056 49.8369 24.6162 49.8604 24.915C49.8838 25.208 49.916 25.4805 49.957 25.7324C49.998 25.9785 50.0479 26.1982 50.1064 26.3916C50.165 26.5849 50.2324 26.7373 50.3086 26.8486C50.4199 27.001 50.54 27.1152 50.6689 27.1914C50.7979 27.2676 50.9062 27.3203 50.9941 27.3496C51.1113 27.3848 51.1934 27.417 51.2402 27.4463C51.293 27.4697 51.3193 27.5049 51.3193 27.5517C51.3193 27.5869 51.29 27.6191 51.2314 27.6484C51.1787 27.6777 51.0879 27.6924 50.959 27.6924C50.8359 27.6924 50.7012 27.6836 50.5547 27.666C50.4082 27.6426 50.2559 27.6191 50.0977 27.5957C49.9395 27.5723 49.7754 27.5517 49.6055 27.5342C49.4355 27.5107 49.2686 27.499 49.1045 27.499C48.9404 27.499 48.7734 27.5049 48.6035 27.5166C48.4336 27.5283 48.2695 27.54 48.1113 27.5517C47.959 27.5635 47.8184 27.5752 47.6895 27.5869C47.5605 27.5986 47.458 27.6045 47.3818 27.6045C47.1533 27.6045 47.0391 27.5312 47.0391 27.3848C47.0391 27.332 47.0566 27.2881 47.0918 27.2529C47.1328 27.2119 47.2031 27.1855 47.3027 27.1738C47.3848 27.168 47.458 27.1621 47.5225 27.1562C47.5869 27.1504 47.6514 27.1474 47.7158 27.1474C47.7861 27.1416 47.8564 27.1357 47.9268 27.1299C48.0029 27.124 48.0908 27.1152 48.1904 27.1035C48.3779 27.0742 48.5039 27.0068 48.5684 26.9014C48.6387 26.79 48.6738 26.6406 48.6738 26.4531C48.6738 26.1308 48.6445 25.7383 48.5859 25.2754C48.5332 24.8125 48.46 24.3027 48.3662 23.7461C48.2725 23.1894 48.1582 22.6006 48.0234 21.9795C47.8945 21.3525 47.7568 20.7139 47.6104 20.0635C47.54 19.7295 47.458 19.4805 47.3643 19.3164C47.2764 19.1523 47.1475 19.0703 46.9775 19.0703C46.8896 19.0703 46.7988 19.0879 46.7051 19.123C46.6113 19.1523 46.5176 19.1875 46.4238 19.2285C46.3359 19.2637 46.251 19.2988 46.1689 19.334C46.0869 19.3633 46.0107 19.3779 45.9404 19.3779C45.8291 19.3779 45.7734 19.331 45.7734 19.2373C45.7734 19.1611 45.8027 19.1084 45.8613 19.0791C45.9258 19.0439 45.9932 19.0117 46.0635 18.9824C46.2275 18.918 46.4033 18.8359 46.5908 18.7363C46.7842 18.6367 46.9922 18.5019 47.2148 18.332C47.4316 18.1621 47.625 17.9805 47.7949 17.7871C47.9648 17.5937 48.1113 17.415 48.2344 17.251C48.3574 17.0869 48.457 16.9521 48.5332 16.8467C48.6094 16.7353 48.668 16.6797 48.709 16.6797Z" fill="#557153"/>
<path d="M43.4971 13.9023C43.8428 13.9023 44.1182 13.9931 44.3232 14.1748C44.5283 14.3564 44.6309 14.6142 44.6309 14.9482C44.6309 15.1709 44.5957 15.3584 44.5254 15.5107C44.4551 15.6572 44.3643 15.7773 44.2529 15.8711C44.1416 15.959 44.0186 16.0234 43.8838 16.0644C43.7549 16.0996 43.626 16.1172 43.4971 16.1172C43.3857 16.1172 43.2686 16.0996 43.1455 16.0644C43.0225 16.0293 42.9082 15.9707 42.8027 15.8887C42.6973 15.8008 42.6094 15.6894 42.5391 15.5547C42.4746 15.414 42.4424 15.2412 42.4424 15.0361C42.4424 14.8193 42.4775 14.6406 42.5479 14.5C42.6182 14.3535 42.7061 14.2363 42.8115 14.1484C42.917 14.0605 43.0312 13.999 43.1543 13.9639C43.2773 13.9228 43.3916 13.9023 43.4971 13.9023ZM44.7451 16.7851C44.8037 16.7851 44.833 16.8525 44.833 16.9873C44.833 17.0752 44.8213 17.2217 44.7979 17.4267C44.7803 17.626 44.7568 17.8398 44.7275 18.0683C44.6807 18.4316 44.6338 18.8359 44.5869 19.2812C44.54 19.7207 44.4932 20.1748 44.4463 20.6435C44.4053 21.1064 44.3643 21.5664 44.3232 22.0234C44.2881 22.4805 44.2559 22.9053 44.2266 23.2978C44.1973 23.6846 44.1738 24.0273 44.1562 24.3262C44.1387 24.6191 44.1299 24.8359 44.1299 24.9765C44.1299 25.1582 44.1416 25.3076 44.165 25.4248C44.1885 25.542 44.2178 25.6387 44.2529 25.7148C44.2881 25.791 44.3262 25.8525 44.3672 25.8994C44.4141 25.9463 44.4609 25.9873 44.5078 26.0224C44.5605 26.0576 44.625 26.0898 44.7012 26.1191C44.7773 26.1484 44.8594 26.1777 44.9473 26.207C45.0352 26.2305 45.123 26.251 45.2109 26.2685C45.3047 26.2861 45.3896 26.2978 45.4658 26.3037C45.5889 26.3271 45.6885 26.3447 45.7646 26.3564C45.8408 26.3681 45.8789 26.4062 45.8789 26.4707C45.8789 26.5879 45.7529 26.6465 45.501 26.6465C45.3252 26.6465 45.1494 26.6348 44.9736 26.6113C44.7979 26.582 44.6162 26.5498 44.4287 26.5146C44.2471 26.4795 44.0566 26.4502 43.8574 26.4267C43.6582 26.3974 43.4443 26.3828 43.2158 26.3828C43.0049 26.3828 42.8145 26.3887 42.6445 26.4004C42.4746 26.4121 42.3193 26.4267 42.1787 26.4443C42.0381 26.4619 41.9062 26.4765 41.7832 26.4883C41.6602 26.5 41.5371 26.5058 41.4141 26.5058C41.3145 26.5058 41.2236 26.4941 41.1416 26.4707C41.0596 26.4414 41.0186 26.3857 41.0186 26.3037C41.0186 26.2217 41.0625 26.166 41.1504 26.1367C41.2441 26.1015 41.3379 26.0752 41.4316 26.0576C41.5488 26.0342 41.6631 26.0078 41.7744 25.9785C41.8857 25.9492 41.9854 25.9053 42.0732 25.8467C42.167 25.7822 42.2432 25.7002 42.3018 25.6006C42.3662 25.4951 42.4072 25.3603 42.4248 25.1963C42.4482 24.874 42.4658 24.5459 42.4775 24.2119C42.4893 23.8779 42.498 23.5498 42.5039 23.2275C42.5098 22.8994 42.5127 22.583 42.5127 22.2783C42.5127 21.9678 42.5127 21.6777 42.5127 21.4082C42.5127 21.0859 42.5127 20.793 42.5127 20.5293C42.5127 20.2598 42.5068 20.0312 42.4951 19.8437C42.4834 19.5449 42.4482 19.3105 42.3896 19.1406C42.3369 18.9707 42.2578 18.8447 42.1523 18.7627C42.0527 18.6806 41.9238 18.6279 41.7656 18.6045C41.6074 18.5752 41.417 18.5517 41.1943 18.5342C41.1299 18.5224 41.0771 18.5019 41.0361 18.4726C41.001 18.4433 40.9834 18.3965 40.9834 18.332C40.9834 18.2207 41.0713 18.1562 41.2471 18.1387C41.335 18.1328 41.4463 18.124 41.5811 18.1123C41.7158 18.0947 41.8711 18.0713 42.0469 18.042C42.2285 18.0127 42.4248 17.9717 42.6357 17.9189C42.8467 17.8603 43.0693 17.7812 43.3037 17.6816C43.5615 17.5762 43.7725 17.4707 43.9365 17.3652C44.1064 17.2598 44.2441 17.166 44.3496 17.084C44.4551 16.9961 44.5371 16.9258 44.5957 16.873C44.6543 16.8144 44.7041 16.7851 44.7451 16.7851Z" fill="#557153"/>
<path d="M33.4248 18.4814C33.5596 18.4346 33.7354 18.3906 33.9521 18.3496C34.1748 18.3027 34.3887 18.2558 34.5938 18.209C35.0098 18.1094 35.3555 17.9746 35.6309 17.8047C35.9062 17.6348 36.1377 17.4267 36.3252 17.1806C36.5186 16.9287 36.6826 16.6416 36.8174 16.3193C36.9521 15.9912 37.0869 15.6191 37.2217 15.2031C37.3389 14.8398 37.4561 14.5849 37.5732 14.4385C37.6963 14.2861 37.8311 14.2099 37.9775 14.2099C38.1123 14.2099 38.2061 14.2598 38.2588 14.3594C38.3115 14.459 38.3379 14.5908 38.3379 14.7549C38.3379 14.9131 38.3115 15.1181 38.2588 15.3701C38.2061 15.6162 38.1445 15.8769 38.0742 16.1523C38.0098 16.4277 37.9512 16.7002 37.8984 16.9697C37.8457 17.2334 37.8193 17.4648 37.8193 17.664C37.8193 17.7578 37.8369 17.8428 37.8721 17.9189C37.9131 17.9892 37.9922 18.0244 38.1094 18.0244C38.1797 18.0244 38.2646 18.0185 38.3643 18.0068C38.4639 17.9951 38.5693 17.9834 38.6807 17.9717C38.792 17.9599 38.9062 17.9482 39.0234 17.9365C39.1465 17.9248 39.2607 17.9189 39.3662 17.9189C39.6182 17.9189 39.7441 17.998 39.7441 18.1562C39.7441 18.2383 39.7119 18.2969 39.6475 18.332C39.583 18.3672 39.4951 18.3848 39.3838 18.3848C39.3018 18.3848 39.2021 18.3877 39.085 18.3935C38.9678 18.3994 38.8418 18.414 38.707 18.4375C38.5723 18.4551 38.4375 18.4814 38.3027 18.5166C38.168 18.5517 38.042 18.5986 37.9248 18.6572C37.7607 18.7392 37.626 18.8418 37.5205 18.9648C37.4209 19.0879 37.3389 19.2139 37.2744 19.3428C37.1748 19.5478 37.0693 19.8291 36.958 20.1865C36.8467 20.5439 36.7441 20.9424 36.6504 21.3818C36.5566 21.8154 36.4775 22.2724 36.4131 22.7529C36.3545 23.2275 36.3252 23.6875 36.3252 24.1328C36.3252 24.7598 36.3779 25.2988 36.4834 25.75C36.5889 26.1953 36.7354 26.5644 36.9229 26.8574C37.1104 27.1504 37.333 27.3672 37.5908 27.5078C37.8486 27.6426 38.127 27.7099 38.4258 27.7099C38.6602 27.7099 38.8594 27.6777 39.0234 27.6133C39.1875 27.543 39.3223 27.4551 39.4277 27.3496C39.5332 27.2383 39.6094 27.1181 39.6562 26.9892C39.7031 26.8545 39.7266 26.7226 39.7266 26.5937C39.7266 26.4355 39.6826 26.3037 39.5947 26.1982C39.5127 26.0869 39.4189 25.9814 39.3135 25.8818C39.208 25.7822 39.1113 25.6738 39.0234 25.5566C38.9414 25.4394 38.9004 25.2871 38.9004 25.0996C38.9004 24.8652 38.9736 24.6689 39.1201 24.5107C39.2725 24.3525 39.4805 24.2734 39.7441 24.2734C39.8613 24.2734 39.9727 24.2939 40.0781 24.3349C40.1895 24.376 40.2861 24.4433 40.3682 24.5371C40.4561 24.6308 40.5264 24.751 40.5791 24.8974C40.6318 25.0381 40.6582 25.208 40.6582 25.4072C40.6582 25.7529 40.6055 26.0986 40.5 26.4443C40.3945 26.7842 40.2275 27.0918 39.999 27.3672C39.7705 27.6367 39.4746 27.8564 39.1113 28.0264C38.748 28.2021 38.3057 28.29 37.7842 28.29C37.1982 28.29 36.6709 28.1699 36.2021 27.9297C35.7334 27.6836 35.3584 27.3525 35.0771 26.9365C34.8252 26.5498 34.6406 26.1133 34.5234 25.6269C34.4062 25.1348 34.3477 24.6367 34.3477 24.1328C34.3477 23.5469 34.3916 22.9814 34.4795 22.4365C34.5674 21.8857 34.6641 21.3877 34.7695 20.9424C34.875 20.4912 34.9717 20.1045 35.0596 19.7822C35.1475 19.4541 35.1914 19.2168 35.1914 19.0703C35.1914 18.9648 35.1621 18.9004 35.1035 18.8769C35.0449 18.8535 34.9658 18.8418 34.8662 18.8418C34.8076 18.8418 34.7256 18.8447 34.6201 18.8506C34.5205 18.8564 34.4092 18.8623 34.2861 18.8681C34.1631 18.874 34.0342 18.8799 33.8994 18.8857C33.7646 18.8916 33.6357 18.8945 33.5127 18.8945C33.2959 18.8945 33.1875 18.833 33.1875 18.7099C33.1875 18.6103 33.2666 18.5342 33.4248 18.4814Z" fill="#557153"/>
<path d="M25.5234 16.6797C25.5703 16.6797 25.6172 16.7558 25.6641 16.9082C25.7109 17.0547 25.7578 17.248 25.8047 17.4883C25.8516 17.7285 25.8984 18.0068 25.9453 18.3232C25.9922 18.6338 26.0391 18.9502 26.0859 19.2724L26.4023 21.4873C26.4316 21.2939 26.4814 21.0713 26.5518 20.8193C26.6279 20.5674 26.7275 20.3066 26.8506 20.0371C26.9736 19.7676 27.123 19.5039 27.2988 19.2461C27.4746 18.9883 27.6768 18.7568 27.9053 18.5517C28.1396 18.3467 28.4004 18.1826 28.6875 18.0596C28.9805 17.9306 29.3057 17.8662 29.6631 17.8662C30.1025 17.8662 30.4834 17.9512 30.8057 18.1211C31.1279 18.2851 31.3945 18.5166 31.6055 18.8154C31.8164 19.1084 31.9717 19.4599 32.0713 19.8701C32.1709 20.2803 32.2207 20.7285 32.2207 21.2148C32.2207 21.6543 32.1943 22.0967 32.1416 22.542C32.0947 22.9814 32.042 23.415 31.9834 23.8428C31.9307 24.2705 31.8779 24.6836 31.8252 25.082C31.7783 25.4805 31.7549 25.8525 31.7549 26.1982C31.7549 26.4033 31.7725 26.582 31.8076 26.7344C31.8428 26.8867 31.8955 27.0273 31.9658 27.1562C32.0479 27.2793 32.1475 27.3877 32.2646 27.4814C32.3877 27.5693 32.502 27.6543 32.6074 27.7363C32.7188 27.8125 32.8125 27.8916 32.8887 27.9736C32.9707 28.0498 33.0117 28.1318 33.0117 28.2197C33.0117 28.2724 32.9971 28.3164 32.9678 28.3515C32.9385 28.3926 32.8887 28.4131 32.8184 28.4131C32.7129 28.4131 32.5957 28.3721 32.4668 28.29C32.3438 28.2139 32.1885 28.1172 32.001 28C31.8193 27.8769 31.5996 27.748 31.3418 27.6133C31.084 27.4726 30.7705 27.3437 30.4014 27.2265C30.126 27.1328 29.8477 27.0596 29.5664 27.0068C29.291 26.9541 28.9688 26.9189 28.5996 26.9014C28.3945 26.8838 28.292 26.8252 28.292 26.7256C28.292 26.6142 28.3594 26.5586 28.4941 26.5586C28.5762 26.5586 28.6904 26.5586 28.8369 26.5586C28.9834 26.5586 29.1328 26.5527 29.2852 26.541C29.5195 26.5234 29.7129 26.4531 29.8652 26.3301C30.0176 26.2012 30.1318 25.9668 30.208 25.6269C30.2314 25.4922 30.2549 25.3223 30.2783 25.1172C30.3018 24.9062 30.3223 24.6836 30.3398 24.4492C30.3574 24.209 30.3721 23.9658 30.3838 23.7197C30.3955 23.4736 30.4014 23.2392 30.4014 23.0166C30.4014 22.8174 30.3984 22.5889 30.3926 22.331C30.3867 22.0674 30.3662 21.7949 30.3311 21.5137C30.3018 21.2324 30.252 20.957 30.1816 20.6875C30.1172 20.418 30.0205 20.1777 29.8916 19.9668C29.7627 19.7558 29.5986 19.5859 29.3994 19.457C29.2002 19.3223 28.957 19.2549 28.6699 19.2549C28.4238 19.2549 28.1982 19.3164 27.9932 19.4394C27.7939 19.5625 27.6152 19.7353 27.457 19.958C27.2988 20.1748 27.1641 20.4326 27.0527 20.7314C26.9414 21.0303 26.8564 21.3584 26.7979 21.7158C26.7334 22.0791 26.6895 22.4541 26.666 22.8408C26.6484 23.2217 26.6396 23.6025 26.6396 23.9834C26.6396 24.3056 26.6514 24.6162 26.6748 24.915C26.6982 25.208 26.7305 25.4805 26.7715 25.7324C26.8125 25.9785 26.8623 26.1982 26.9209 26.3916C26.9795 26.5849 27.0469 26.7373 27.123 26.8486C27.2344 27.001 27.3545 27.1152 27.4834 27.1914C27.6123 27.2676 27.7207 27.3203 27.8086 27.3496C27.9258 27.3848 28.0078 27.417 28.0547 27.4463C28.1074 27.4697 28.1338 27.5049 28.1338 27.5517C28.1338 27.5869 28.1045 27.6191 28.0459 27.6484C27.9932 27.6777 27.9023 27.6924 27.7734 27.6924C27.6504 27.6924 27.5156 27.6836 27.3691 27.666C27.2227 27.6426 27.0703 27.6191 26.9121 27.5957C26.7539 27.5723 26.5898 27.5517 26.4199 27.5342C26.25 27.5107 26.083 27.499 25.9189 27.499C25.7549 27.499 25.5879 27.5049 25.418 27.5166C25.248 27.5283 25.084 27.54 24.9258 27.5517C24.7734 27.5635 24.6328 27.5752 24.5039 27.5869C24.375 27.5986 24.2725 27.6045 24.1963 27.6045C23.9678 27.6045 23.8535 27.5312 23.8535 27.3848C23.8535 27.332 23.8711 27.2881 23.9062 27.2529C23.9473 27.2119 24.0176 27.1855 24.1172 27.1738C24.1992 27.168 24.2725 27.1621 24.3369 27.1562C24.4014 27.1504 24.4658 27.1474 24.5303 27.1474C24.6006 27.1416 24.6709 27.1357 24.7412 27.1299C24.8174 27.124 24.9053 27.1152 25.0049 27.1035C25.1924 27.0742 25.3184 27.0068 25.3828 26.9014C25.4531 26.79 25.4883 26.6406 25.4883 26.4531C25.4883 26.1308 25.459 25.7383 25.4004 25.2754C25.3477 24.8125 25.2744 24.3027 25.1807 23.7461C25.0869 23.1894 24.9727 22.6006 24.8379 21.9795C24.709 21.3525 24.5713 20.7139 24.4248 20.0635C24.3545 19.7295 24.2725 19.4805 24.1787 19.3164C24.0908 19.1523 23.9619 19.0703 23.792 19.0703C23.7041 19.0703 23.6133 19.0879 23.5195 19.123C23.4258 19.1523 23.332 19.1875 23.2383 19.2285C23.1504 19.2637 23.0654 19.2988 22.9834 19.334C22.9014 19.3633 22.8252 19.3779 22.7549 19.3779C22.6436 19.3779 22.5879 19.331 22.5879 19.2373C22.5879 19.1611 22.6172 19.1084 22.6758 19.0791C22.7402 19.0439 22.8076 19.0117 22.8779 18.9824C23.042 18.918 23.2178 18.8359 23.4053 18.7363C23.5986 18.6367 23.8066 18.5019 24.0293 18.332C24.2461 18.1621 24.4395 17.9805 24.6094 17.7871C24.7793 17.5937 24.9258 17.415 25.0488 17.251C25.1719 17.0869 25.2715 16.9521 25.3477 16.8467C25.4238 16.7353 25.4824 16.6797 25.5234 16.6797Z" fill="#557153"/>
<path d="M16.0752 21.6631C15.8584 21.6631 15.6533 21.6221 15.46 21.54C15.2725 21.458 15.1084 21.3349 14.9678 21.1709C14.8271 21.0068 14.7158 20.8017 14.6338 20.5556C14.5518 20.3096 14.5107 20.0195 14.5107 19.6855C14.5107 19.3223 14.5605 18.9678 14.6602 18.6221C14.7656 18.2705 14.9268 17.9599 15.1436 17.6904C15.3604 17.415 15.6357 17.1953 15.9697 17.0312C16.3096 16.8672 16.7168 16.7851 17.1914 16.7851C17.584 16.7851 17.9297 16.8379 18.2285 16.9433C18.5332 17.043 18.7998 17.1806 19.0283 17.3564C19.2568 17.5264 19.4502 17.7256 19.6084 17.9541C19.7725 18.1826 19.9102 18.4228 20.0215 18.6748C20.1328 18.9209 20.2236 19.1728 20.2939 19.4306C20.3701 19.6826 20.4346 19.9228 20.4873 20.1514C20.5166 20.2803 20.5518 20.4648 20.5928 20.7051C20.6396 20.9394 20.6895 21.2119 20.7422 21.5224C20.7949 21.833 20.8506 22.167 20.9092 22.5244C20.9678 22.876 21.0264 23.2334 21.085 23.5967C21.1436 23.9599 21.1992 24.3144 21.252 24.6601C21.3105 25 21.3633 25.3135 21.4102 25.6006C21.457 25.8818 21.4951 26.125 21.5244 26.3301C21.5596 26.5293 21.5859 26.667 21.6035 26.7431C21.6387 26.9248 21.6768 27.1094 21.7178 27.2969C21.7646 27.4844 21.8203 27.6572 21.8848 27.8154C21.9551 27.9678 22.04 28.0937 22.1396 28.1933C22.2393 28.293 22.3652 28.3428 22.5176 28.3428C22.6055 28.3428 22.6816 28.3223 22.7461 28.2812C22.8105 28.2402 22.8604 28.1846 22.8955 28.1142C22.9365 28.0439 22.9658 27.9648 22.9834 27.8769C23.001 27.789 23.0098 27.6982 23.0098 27.6045C23.0098 27.4931 23.0068 27.3818 23.001 27.2705C22.9951 27.1533 22.9922 27.0537 22.9922 26.9717C22.9922 26.8838 23.0039 26.8076 23.0273 26.7431C23.0508 26.6787 23.0977 26.6465 23.168 26.6465C23.2324 26.6465 23.2822 26.6846 23.3174 26.7607C23.3584 26.831 23.3877 26.916 23.4053 27.0156C23.4287 27.1094 23.4434 27.206 23.4492 27.3056C23.4551 27.3994 23.458 27.4697 23.458 27.5166C23.458 27.7217 23.4404 27.9531 23.4053 28.2109C23.3701 28.4687 23.2969 28.7178 23.1855 28.958C23.0801 29.2041 22.9043 29.4062 22.6582 29.5644C22.4121 29.7226 22.1279 29.8017 21.8057 29.8017C21.5244 29.8017 21.2812 29.7607 21.0762 29.6787C20.877 29.5967 20.7041 29.4941 20.5576 29.3711C20.417 29.248 20.2969 29.1162 20.1973 28.9756C20.1035 28.8349 20.0273 28.7031 19.9688 28.5801C19.8047 28.2637 19.6787 27.918 19.5908 27.543C19.5088 27.1621 19.4414 26.7988 19.3887 26.4531C19.3008 26.5996 19.166 26.7812 18.9844 26.998C18.8086 27.2148 18.5889 27.4228 18.3252 27.6221C18.0615 27.8213 17.7568 27.9912 17.4111 28.1318C17.0654 28.2724 16.6816 28.3428 16.2598 28.3428C15.791 28.3428 15.3896 28.2754 15.0557 28.1406C14.7275 28.0117 14.458 27.8359 14.2471 27.6133C14.0361 27.3848 13.8809 27.1211 13.7812 26.8223C13.6816 26.5176 13.6318 26.1953 13.6318 25.8555C13.6318 25.4922 13.6992 25.126 13.834 24.7568C13.9688 24.3877 14.1885 24.0537 14.4932 23.7549C14.8037 23.456 15.2051 23.2129 15.6973 23.0254C16.1953 22.8379 16.8018 22.7441 17.5166 22.7441C17.6807 22.7441 17.8389 22.7529 17.9912 22.7705C18.1494 22.7822 18.29 22.7969 18.4131 22.8144C18.542 22.832 18.6504 22.8496 18.7383 22.8672C18.832 22.8848 18.8994 22.8965 18.9404 22.9023C18.9053 22.3984 18.8613 21.8945 18.8086 21.3906C18.7852 21.1797 18.7588 20.957 18.7295 20.7226C18.7061 20.4883 18.6797 20.2539 18.6504 20.0195C18.6211 19.7793 18.5889 19.5449 18.5537 19.3164C18.5186 19.0879 18.4805 18.874 18.4395 18.6748C18.3457 18.2236 18.1611 17.8662 17.8857 17.6025C17.6162 17.333 17.2705 17.1982 16.8486 17.1982C16.6201 17.1982 16.418 17.2392 16.2422 17.3213C16.0723 17.4033 15.9258 17.5088 15.8027 17.6377C15.6855 17.7666 15.5977 17.9131 15.5391 18.0771C15.4805 18.2353 15.4512 18.3935 15.4512 18.5517C15.4512 18.7217 15.4922 18.8652 15.5742 18.9824C15.6562 19.0937 15.7559 19.1933 15.873 19.2812C15.9961 19.3691 16.1279 19.4541 16.2686 19.5361C16.4092 19.6123 16.5381 19.7031 16.6553 19.8086C16.7783 19.9082 16.8809 20.0312 16.9629 20.1777C17.0449 20.3183 17.0859 20.4971 17.0859 20.7139C17.0859 21.001 16.9863 21.2324 16.7871 21.4082C16.5938 21.5781 16.3564 21.6631 16.0752 21.6631ZM19.0107 23.4473C18.9697 23.4297 18.8965 23.4092 18.791 23.3857C18.6914 23.3564 18.5713 23.3301 18.4307 23.3066C18.29 23.2773 18.1377 23.2539 17.9736 23.2363C17.8154 23.2187 17.6572 23.2099 17.499 23.2099C17.1885 23.2099 16.8984 23.2539 16.6289 23.3418C16.3652 23.4297 16.1367 23.5615 15.9434 23.7373C15.75 23.9072 15.5977 24.124 15.4863 24.3877C15.375 24.6455 15.3193 24.9443 15.3193 25.2842C15.3193 25.5947 15.3691 25.8525 15.4688 26.0576C15.5742 26.2568 15.7061 26.415 15.8643 26.5322C16.0283 26.6494 16.207 26.7314 16.4004 26.7783C16.5996 26.8252 16.793 26.8486 16.9805 26.8486C17.2793 26.8486 17.5635 26.8017 17.833 26.708C18.1025 26.6142 18.3398 26.5058 18.5449 26.3828C18.75 26.2598 18.917 26.1396 19.0459 26.0224C19.1748 25.9053 19.2539 25.8262 19.2832 25.7851C19.2422 25.3926 19.2041 25.0351 19.1689 24.7129C19.1514 24.5723 19.1338 24.4346 19.1162 24.2998C19.1045 24.165 19.0898 24.039 19.0723 23.9219C19.0605 23.8047 19.0488 23.7051 19.0371 23.623C19.0254 23.541 19.0166 23.4824 19.0107 23.4473Z" fill="#557153"/>
<path d="M32.7757 0C33.0076 0 33.1484 0.110653 33.1981 0.331959C33.2644 0.553265 33.2975 0.837801 33.2975 1.18557C33.2975 1.37526 33.2809 1.75464 33.2478 2.32371C33.2147 2.89278 33.1981 3.59622 33.1981 4.43402C33.1981 5.90412 33.2561 7.18454 33.3721 8.27526C33.5046 9.35017 33.6537 10.2907 33.8193 11.0969C33.985 11.8873 34.1589 12.5591 34.3412 13.1124C34.5234 13.6656 34.6808 14.1399 34.8133 14.5351C34.9127 14.8512 35.0369 15.2385 35.186 15.6969C35.3517 16.1395 35.4345 16.511 35.4345 16.8113C35.4345 17.0643 35.3268 17.1907 35.1115 17.1907C34.9293 17.1749 34.7139 17.0643 34.4654 16.8588C34.2169 16.6375 33.9519 16.3766 33.6702 16.0763C33.4052 15.7759 33.1401 15.4598 32.8751 15.1278C32.6266 14.7959 32.4112 14.5034 32.229 14.2505C31.4835 13.3021 30.7132 12.4564 29.9181 11.7134C29.1229 10.9704 28.2366 10.3381 27.2592 9.81649C26.2984 9.29485 25.2216 8.89966 24.0289 8.63093C22.8527 8.3622 21.5109 8.22783 20.0034 8.22783C18.2805 8.22783 16.6653 8.55189 15.1578 9.2C13.6503 9.8323 12.3333 10.8045 11.2069 12.1165C10.0969 13.4285 9.21066 15.0804 8.54802 17.0722C7.90195 19.0481 7.57891 21.3718 7.57891 24.0433C7.57891 26.5093 7.80255 28.7065 8.24983 30.6351C8.71368 32.5478 9.32662 34.2234 10.0887 35.6619C10.8507 37.0845 11.7287 38.2938 12.7226 39.2897C13.7332 40.2698 14.7851 41.068 15.8784 41.6845C16.9884 42.301 18.1066 42.7436 19.233 43.0124C20.3595 43.2811 21.428 43.4155 22.4386 43.4155C23.9957 43.4155 25.379 43.2337 26.5883 42.8701C27.7976 42.5065 28.8661 42.0165 29.7938 41.4C30.7215 40.7993 31.5167 40.1038 32.1793 39.3134C32.8419 38.523 33.3969 37.701 33.8442 36.8474C34.2915 35.978 35.5 34 36 33.5C36.2651 32.6306 38.5 31 38 31.5C38.0663 31.0258 40 31 40 31C40 31 41.058 31.3114 40.558 31.3114C40.558 31.7224 40.5663 30.8361 40.5 31.5C40.4503 32.1639 39.2699 32.2301 38 33.5C37.5 34 36.5 35 35.7327 36.6103C35.3848 37.5113 34.921 38.4124 34.3412 39.3134C33.7779 40.1986 33.0822 41.0443 32.2539 41.8505C31.4421 42.6567 30.4647 43.368 29.3217 43.9845C28.1786 44.601 26.8534 45.0911 25.3459 45.4546C23.8549 45.8182 22.1569 46 20.2518 46C18.645 46 17.0215 45.8419 15.3815 45.5258C13.758 45.2096 12.1925 44.7196 10.685 44.0557C9.19409 43.4076 7.79427 42.5698 6.48556 41.5423C5.19342 40.5306 4.06694 39.3213 3.10611 37.9144C2.14529 36.4918 1.38326 34.8715 0.820013 33.0536C0.273338 31.2199 0 29.1729 0 26.9124C0 24.2093 0.298187 21.8381 0.89456 19.799C1.49093 17.7598 2.29438 15.9972 3.3049 14.5113C4.31542 13.0254 5.47504 11.8003 6.78375 10.8361C8.10902 9.85601 9.49228 9.07354 10.9335 8.48866C12.3913 7.90378 13.8574 7.49278 15.3318 7.25567C16.8227 7.01856 18.2308 6.9 19.5561 6.9C20.55 6.9 21.4529 6.93952 22.2646 7.01856C23.0929 7.09759 23.8467 7.18454 24.5259 7.27938C25.2216 7.35842 25.8511 7.43746 26.4144 7.51649C26.9942 7.59553 27.5243 7.63505 28.0047 7.63505C28.8496 7.63505 29.5536 7.46907 30.1169 7.13711C30.6801 6.78935 31.0942 6.13333 31.3593 5.16907C31.525 4.50515 31.6409 3.86495 31.7072 3.24845C31.79 2.63196 31.8646 2.0866 31.9308 1.61237C32.0137 1.12234 32.113 0.735052 32.229 0.450515C32.345 0.150172 32.5272 0 32.7757 0Z" fill="#557153"/>
<path fill-rule="evenodd" clip-rule="evenodd" d="M78.0589 17.1696C80.6655 20.0248 80.4641 24.4522 77.6089 27.0589C74.7537 29.6655 70.3263 29.4641 67.7196 26.6089C65.113 23.7537 65.3144 19.3263 68.1696 16.7196C71.0248 14.113 75.4522 14.3144 78.0589 17.1696ZM74.3906 25.3195C72.653 26.1539 70.6651 26.304 68.822 25.7399C69.5038 26.4605 70.3648 26.987 71.317 27.2656C72.2691 27.5442 73.2781 27.5648 74.2408 27.3253C74.4533 26.679 74.5051 25.9901 74.3906 25.3195ZM72.8189 22.6947C71.5896 23.2173 70.2136 23.2816 68.9409 22.876C68.3479 22.6885 67.7903 22.4034 67.2912 22.0324C67.3046 22.5642 67.3934 23.0954 67.5584 23.6083C68.0538 23.9395 68.5937 24.1988 69.1619 24.3784C70.7397 24.8816 72.4524 24.741 73.927 23.9873C73.6499 23.4855 73.2728 23.0448 72.8189 22.6947ZM71.5902 16.4422C70.6665 16.6613 69.814 17.1127 69.1136 17.7536C68.3195 18.4785 67.7825 19.3791 67.5058 20.3427C67.9594 20.8497 68.5301 21.2382 69.1682 21.4742C69.3148 19.5519 70.1794 17.7561 71.5902 16.4422ZM75.5663 16.9695C75.0951 16.7136 74.5894 16.5268 74.0649 16.4151C73.5309 16.678 73.0368 17.0151 72.5973 17.4166C71.324 18.579 70.637 20.1427 70.5534 21.7394C71.1268 21.7503 71.6963 21.6433 72.2266 21.4251C72.3888 20.0992 73.0211 18.8756 74.0087 17.9763C74.4818 17.5445 75.0088 17.2102 75.5663 16.9695ZM74.1868 19.9426C73.8909 20.4335 73.6988 20.9799 73.6223 21.548C74.6896 22.3515 75.4332 23.5113 75.7181 24.8165C75.8523 25.4241 75.8841 26.0499 75.8122 26.668C76.2692 26.3878 76.6838 26.0438 77.0434 25.6463C77.0824 25.052 77.037 24.4553 76.9085 23.8737C76.5554 22.2559 75.5768 20.8426 74.1868 19.9426ZM77.025 18.1136L76.9196 18.0012C76.2542 18.1403 75.6328 18.4398 75.1095 18.8737C76.701 19.9619 77.8247 21.6093 78.257 23.4882C78.533 22.5622 78.5646 21.5805 78.3487 20.6386C78.1328 19.6968 77.6768 18.8269 77.025 18.1136Z" fill="#557153"/>
<path d="M40 31.5C48.9367 30.5001 50.1236 28.2499 51.0545 29.4998C51.9855 30.7497 52.9164 31.9996 57.1055 31.9996C61.2945 31.9996 64.5641 32.0915 68.7418 29.4998C70.0722 28.6745 71 27.5 71 27.5" stroke="#557153"/>
</svg>
